<?xml version="1.0" encoding="utf-8"?>
<!-- Generator: Adobe Illustrator 15.1.0, SVG Export Plug-In . SVG Version: 6.00 Build 0)  -->
<!DOCTYPE svg PUBLIC "-//W3C//DTD SVG 1.1//EN" "http://www.w3.org/Graphics/SVG/1.1/DTD/svg11.dtd">
<svg version="1.1" xmlns="http://www.w3.org/2000/svg" xmlns:xlink="http://www.w3.org/1999/xlink" x="0px" y="0px"
	 width="44.396px" height="88.415px" viewBox="0 0 44.396 88.415" enable-background="new 0 0 44.396 88.415" xml:space="preserve">
<g id="Layer_3" display="none">
	<rect x="-35.21" y="-16.626" display="inline" fill="#5FA3ED" width="130.333" height="114.333"/>
</g>
<g id="Layer_1" display="none">
	<g id="XMLID_145_">
		<g id="XMLID_188_" display="inline">
			<path id="XMLID_192_" fill="#FFFFFF" d="M27.539,5.217c0.029-0.063,0.059-0.129,0.084-0.195c0.746-1.886-0.177-4.017-2.062-4.764
				c-1.886-0.745-4.018,0.178-4.764,2.062c-0.026,0.067-0.05,0.135-0.072,0.201L20.72,2.518L1.756,50.708
				c-0.746,1.886,0.178,4.019,2.063,4.764c1.885,0.746,4.016-0.178,4.762-2.063L27.545,5.221L27.539,5.217z"/>
			<path id="XMLID_191_" fill="#FFFFFF" d="M33.023,18.792c0.028-0.063,0.058-0.128,0.084-0.194
				c0.746-1.885-0.176-4.016-2.063-4.764c-1.885-0.746-4.017,0.178-4.762,2.062c-0.027,0.067-0.05,0.134-0.074,0.201l-0.006-0.003
				L12.635,50.708c-0.745,1.886,0.177,4.019,2.062,4.764c1.885,0.746,4.017-0.178,4.763-2.063L33.03,18.795L33.023,18.792z"/>
			<path id="XMLID_190_" fill="#FFFFFF" d="M42.075,41.261c-1.885-0.745-4.016,0.178-4.762,2.062
				c-0.026,0.067-0.051,0.135-0.073,0.201l-0.007-0.002l-2.813,7.188c-0.746,1.885,0.178,4.018,2.063,4.763
				c1.885,0.746,4.016-0.179,4.762-2.062l2.814-7.187l-0.007-0.004c0.029-0.064,0.059-0.13,0.085-0.194
				C44.883,44.14,43.96,42.009,42.075,41.261z"/>
			<path id="XMLID_189_" fill="#FFFFFF" d="M38.48,32.519c0.029-0.064,0.059-0.129,0.085-0.195c0.749-1.894-0.171-4.031-2.057-4.778
				c-1.885-0.745-4.019,0.185-4.768,2.075c-0.027,0.067-0.051,0.135-0.074,0.202l-0.006-0.003l-8.195,20.875
				c-0.749,1.894,0.172,4.031,2.058,4.776c1.884,0.746,4.019-0.184,4.768-2.076l8.195-20.872L38.48,32.519z"/>
		</g>
		<g id="XMLID_146_" display="inline">
			<g id="XMLID_181_">
				<path id="XMLID_187_" fill="#FFFFFF" d="M5.362,70.795c-1.799,0-3.257-1.662-3.257-4.817c0-3.274,1.458-4.822,3.257-4.822
					c0.605,0,1.28,0.25,1.91,0.677l1.039-1.343c-0.84-0.636-1.834-1.008-2.902-1.008C2.423,59.482,0,62.047,0,65.939
					c0,4.296,2.423,6.457,5.409,6.457c1.141,0,2.199-0.422,3.072-1.142l-0.988-1.286C6.804,70.493,6.04,70.795,5.362,70.795z"/>
				<path id="XMLID_186_" fill="#FFFFFF" d="M43.354,69.968c-0.69,0.522-1.455,0.827-2.133,0.827c-1.8,0-3.256-1.662-3.256-4.817
					c0-3.274,1.456-4.822,3.256-4.822c0.606,0,1.28,0.25,1.911,0.677l1.038-1.343c-0.839-0.636-1.833-1.008-2.9-1.008
					c-2.988,0-5.41,2.565-5.41,6.457c0,4.296,2.422,6.457,5.41,6.457c1.14,0,2.196-0.422,3.07-1.142L43.354,69.968z"/>
				<polygon id="XMLID_185_" fill="#FFFFFF" points="19.064,59.778 16.688,68.937 14.31,59.778 11.619,59.778 10.631,72.008 
					12.488,72.008 13.112,62.379 15.818,71.956 15.903,71.958 15.9,71.969 16.688,71.963 17.474,71.969 17.471,71.958 
					17.556,71.956 20.263,62.379 20.887,72.008 22.744,72.008 21.756,59.778 				"/>
				<path id="XMLID_182_" fill="#FFFFFF" d="M34.073,63.459c-0.021-0.502-0.231-1.989-1.412-2.974
					c-1.026-0.854-3.351-0.789-4.476-0.789l-2.347,0.005v12.258h1.943v-4.676c0.838,0.031,3.707,0.206,4.878-0.77
					c1.181-0.983,1.394-2.471,1.412-2.975h0.002c0,0-0.001-0.023-0.001-0.035C34.074,63.489,34.074,63.473,34.073,63.459
					L34.073,63.459L34.073,63.459z M31.297,65.096c-0.794,0.74-2.841,0.564-3.514,0.538V61.37c0.674-0.027,2.72-0.203,3.514,0.537
					c0.517,0.479,0.553,1.154,0.561,1.6C31.849,63.95,31.809,64.62,31.297,65.096z"/>
			</g>
			<g id="XMLID_170_">
				<path id="XMLID_180_" fill="#FFFFFF" d="M4.73,80.603c-0.948,0-1.562-0.976-1.562-2.483c0-1.834,0.808-2.488,1.562-2.488
					c0.257,0,0.545,0.104,0.821,0.289l0.338-0.482c-0.348-0.266-0.738-0.404-1.139-0.404c-1.329,0-2.293,1.288-2.293,3.066
					c0,1.863,0.9,3.066,2.293,3.066c0.433,0,0.852-0.16,1.217-0.469l-0.313-0.453C5.349,80.476,5.024,80.603,4.73,80.603z"/>
				<path id="XMLID_177_" fill="#FFFFFF" d="M29.853,75.086c-0.119-0.027-0.234-0.041-0.347-0.041h-0.029
					c-0.029,0-0.04,0.002-0.052,0.002l-0.028,0.002c-0.38,0.017-0.748,0.172-1.068,0.449l-0.044,0.039
					c-0.009,0.008-0.015,0.014-0.02,0.018l-0.023,0.023c-0.574,0.551-0.904,1.476-0.904,2.533c0,1.674,0.664,2.805,1.776,3.027
					c0.122,0.027,0.234,0.04,0.346,0.04h0.05c0.011,0,0.021,0,0.03-0.001l0.03-0.002c0.381-0.016,0.748-0.172,1.069-0.45
					c0.015-0.015,0.028-0.024,0.044-0.04l0.042-0.039c0.574-0.552,0.904-1.477,0.904-2.535C31.63,76.441,30.966,75.31,29.853,75.086
					z M29.479,80.583c-0.248,0-0.522-0.104-0.792-0.297c-0.394-0.377-0.563-1.037-0.563-2.154c0-2.161,0.854-2.483,1.363-2.483
					c0.248,0,0.521,0.103,0.793,0.295c0.391,0.375,0.56,1.036,0.56,2.152C30.841,80.258,29.987,80.583,29.479,80.583z"/>
				<polygon id="XMLID_176_" fill="#FFFFFF" points="8.856,78.299 10.503,78.299 10.503,77.7 8.842,77.7 8.842,75.788 
					10.791,75.788 10.883,75.161 8.172,75.161 8.172,81.067 10.984,81.067 10.984,80.44 8.856,80.44 				"/>
				<polygon id="XMLID_175_" fill="#FFFFFF" points="39.615,80.44 39.615,78.299 41.263,78.299 41.263,77.7 39.601,77.7 
					39.601,75.788 41.551,75.788 41.642,75.161 38.932,75.161 38.932,81.067 41.744,81.067 41.744,80.44 				"/>
				<polygon id="XMLID_174_" fill="#FFFFFF" points="13.796,75.161 13.106,75.161 13.106,81.067 15.687,81.067 15.778,80.44 
					13.79,80.44 				"/>
				<polygon id="XMLID_173_" fill="#FFFFFF" points="23.948,75.161 23.257,75.161 23.257,81.067 25.838,81.067 25.929,80.44 
					23.941,80.44 				"/>
				<path id="XMLID_172_" fill="#FFFFFF" d="M20.902,75.161h-0.691l0.003,4.476c-0.04,0.538-0.484,0.913-1.08,0.913
					c-0.627,0-1.082-0.418-1.082-0.993c0-0.038,0.003-0.076,0.007-0.114l-0.001-1.243l0,0l-0.003-0.235l0.003-2.803h-0.691v4.416
					l0.003,0.049c0.028,0.908,0.754,1.543,1.766,1.543c1.025,0,1.77-0.672,1.77-1.598c0-0.045-0.002-0.088-0.006-0.132
					L20.902,75.161z"/>
				<path id="XMLID_171_" fill="#FFFFFF" d="M35.307,77.595l-0.026-0.013c-0.674-0.316-1.255-0.592-0.942-1.328
					c0.098-0.227,0.329-0.494,0.894-0.494c0.521,0,1.105,0.228,1.318,0.318l0.37-0.476c-0.212-0.144-0.825-0.485-1.866-0.485
					c-0.782,0-1.443,0.723-1.443,1.578c0,0.549,0.26,1.014,0.713,1.276c0.128,0.077,0.311,0.153,0.505,0.233
					c0.689,0.287,1.635,0.679,1.351,1.681c-0.119,0.417-0.557,0.675-1.14,0.675c-0.089-0.005-0.355-0.025-0.643-0.104l-0.044-0.013
					c-0.075-0.021-0.153-0.049-0.228-0.079c-0.193-0.08-0.377-0.176-0.485-0.234l-0.234,0.506c0.146,0.092,0.467,0.277,0.761,0.355
					c0.427,0.11,0.899,0.123,1.083,0.123c0.065,0,0.104-0.002,0.104-0.002c0.862,0,1.615-0.802,1.615-1.717
					C36.967,78.709,36.424,78.122,35.307,77.595z"/>
			</g>
			<g id="XMLID_147_">
				<polygon id="XMLID_169_" fill="#FFFFFF" points="30.385,86.282 31.392,86.282 31.392,85.795 30.374,85.795 30.374,84.458 
					31.57,84.458 31.644,83.954 29.957,83.954 29.957,88.29 31.683,88.29 31.683,87.784 30.385,87.784 				"/>
				<polygon id="XMLID_168_" fill="#FFFFFF" points="40.309,87.784 40.309,86.282 41.313,86.282 41.313,85.795 40.298,85.795 
					40.298,84.458 41.494,84.458 41.567,83.954 39.881,83.954 39.881,88.29 41.605,88.29 41.605,87.784 				"/>
				<path id="XMLID_165_" fill="#FFFFFF" d="M9.774,83.894c-0.076-0.021-0.146-0.029-0.216-0.029H9.538
					c-0.018-0.001-0.023,0-0.031,0.001l-0.02,0.002c-0.236,0.012-0.467,0.125-0.668,0.329c-0.01,0.009-0.02,0.019-0.027,0.027
					c-0.006,0.007-0.012,0.011-0.016,0.016l-0.012,0.015c-0.361,0.406-0.569,1.082-0.569,1.856c0,1.228,0.417,2.056,1.116,2.22
					c0.079,0.021,0.148,0.028,0.215,0.028l0.021-0.001l0.004,0.057l0.011-0.055l-0.003-0.001c0.006,0,0.014,0,0.014,0l0.025-0.002
					c0.235-0.012,0.468-0.125,0.669-0.33l0.03-0.03c0,0,0.008-0.009,0.014-0.015l0.01-0.013c0.363-0.406,0.569-1.083,0.569-1.858
					C10.89,84.885,10.473,84.056,9.774,83.894z M9.54,87.874c-0.152,0-0.322-0.072-0.486-0.211
					c-0.236-0.266-0.341-0.738-0.341-1.537c0-1.545,0.521-1.775,0.833-1.775c0.153,0,0.323,0.074,0.488,0.213
					c0.236,0.264,0.34,0.736,0.34,1.536C10.374,87.643,9.852,87.874,9.54,87.874z"/>
				<polygon id="XMLID_164_" fill="#FFFFFF" points="6.404,88.269 6.888,88.269 6.894,83.954 6.404,83.954 				"/>
				<polygon id="XMLID_163_" fill="#FFFFFF" points="24.393,87.224 23.218,83.954 22.696,83.954 22.696,88.269 23.094,88.269 
					23.098,84.866 24.329,88.269 24.791,88.269 24.795,83.954 24.393,83.954 				"/>
				<polygon id="XMLID_162_" fill="#FFFFFF" points="34.714,87.224 33.539,83.954 33.018,83.954 33.018,88.269 33.415,88.269 
					33.418,84.866 34.648,88.269 35.111,88.269 35.116,83.954 34.714,83.954 				"/>
				<path id="XMLID_161_" fill="#FFFFFF" d="M13.336,86.493h0.558v1.271l-0.029,0.017c-0.139,0.077-0.272,0.115-0.396,0.115
					c-0.61,0-1.004-0.696-1.004-1.772c0-1.309,0.519-1.773,1.004-1.773c0.241,0,0.438,0.143,0.572,0.283l0.218-0.344
					c-0.165-0.217-0.476-0.425-0.776-0.425c-0.879,0-1.519,0.944-1.519,2.244c0,1.364,0.597,2.246,1.519,2.246
					c0.294,0,0.578-0.124,0.823-0.36l-0.034-0.061h0.049v-1.949h-1.041L13.336,86.493z"/>
				<path id="XMLID_158_" fill="#FFFFFF" d="M19.834,83.954l-1.021,4.315h0.395l0.268-1.146h1.247l0.267,1.146h0.395l-1.021-4.315
					H19.834z M19.59,86.635l0.51-2.178l0.508,2.178H19.59z"/>
				<path id="XMLID_157_" fill="#FFFFFF" d="M37.911,85.829c-0.104-0.05-0.229-0.091-0.282-0.107l-0.015-0.004
					c-0.384-0.131-0.8-0.355-0.605-0.941c0.083-0.252,0.211-0.418,0.562-0.418c0.327,0.018,0.657,0.208,0.786,0.292l0.155-0.453
					c-0.184-0.12-0.546-0.298-1.102-0.298c-0.503,0-0.928,0.544-0.928,1.188c0,0.432,0.172,0.814,0.448,1.002
					c0.06,0.027,0.473,0.216,0.505,0.228c0.592,0.229,0.815,0.603,0.67,1.11c-0.085,0.298-0.35,0.476-0.704,0.476
					c-0.017,0-0.2-0.011-0.405-0.075l-0.035-0.013c-0.04-0.013-0.089-0.03-0.134-0.053c-0.129-0.063-0.249-0.138-0.317-0.179
					l-0.164,0.414c0.083,0.061,0.303,0.215,0.503,0.274c0.271,0.083,0.569,0.091,0.688,0.091c0.04,0,0.063,0,0.063,0
					c0.554,0,1.035-0.603,1.035-1.289C38.635,86.445,38.271,85.973,37.911,85.829z"/>
				<path id="XMLID_154_" fill="#FFFFFF" d="M27.457,84.004l-0.684-0.021h-0.47v4.284h0.15h0.259h0.099h0.322h0.322
					c0.545,0,0.988-0.956,0.988-2.132C28.445,84.959,28.002,84.004,27.457,84.004z M27.335,87.804l-0.01,0.004h-0.61l0.003-3.274
					h-0.005l0.005-0.063v-0.057h0.139v0.002c0.034-0.002,0.066-0.002,0.1-0.002h0.06c0.687,0.006,0.992,0.537,0.992,1.723
					C28.007,87.097,27.787,87.642,27.335,87.804z"/>
				<path id="XMLID_151_" fill="#FFFFFF" d="M4.282,86.322c0.193-0.049,0.334-0.12,0.418-0.216c0.29-0.327,0.313-0.869,0.316-0.932
					c-0.002-0.063-0.026-0.61-0.316-0.94c-0.227-0.257-0.8-0.284-1.037-0.284c-0.087,0-0.142,0.004-0.142,0.004H3.058v4.315h0.396
					l0.001-1.883H3.55h0.002c0.036,0.002,0.104,0.004,0.188,0.001l0.051,0.035l0.8,1.847h0.597l-0.972-1.931L4.282,86.322z
					 M3.62,85.954c-0.029,0-0.054,0-0.072,0l-0.002,0.004H3.458v-0.059l0.002-1.515h0.092l0.002,0.005
					c0.019-0.001,0.041-0.001,0.066-0.001c0.223,0,0.621,0.03,0.8,0.231c0.146,0.166,0.179,0.393,0.18,0.553
					c-0.001,0.16-0.033,0.386-0.18,0.551C4.241,85.922,3.843,85.954,3.62,85.954z"/>
				<path id="XMLID_148_" fill="#FFFFFF" d="M17.05,86.322c0.194-0.049,0.335-0.12,0.42-0.216c0.288-0.326,0.313-0.869,0.314-0.932
					c-0.002-0.063-0.026-0.611-0.314-0.94c-0.229-0.257-0.802-0.284-1.037-0.284c-0.088,0-0.144,0.004-0.144,0.004h-0.463v4.315
					h0.397l0.003-1.886h0.094l0.002,0.003c0.037,0.001,0.104,0.004,0.187,0.001l0.051,0.035l0.799,1.847h0.597l-0.972-1.931
					L17.05,86.322z M16.389,85.954c-0.026,0-0.049,0-0.066,0v0.002h-0.095l-0.001-0.057l0.001-1.453l0.01-0.055
					c0,0,0.085-0.003,0.151-0.003c0.222,0,0.62,0.03,0.799,0.231c0.146,0.168,0.179,0.394,0.179,0.553
					c0,0.16-0.033,0.386-0.179,0.551C17.01,85.922,16.61,85.954,16.389,85.954z"/>
			</g>
		</g>
	</g>
</g>
<g id="Layer_2">
	<g id="XMLID_337_">
		<g id="XMLID_380_">
			<path id="XMLID_384_" fill="#63AF52" d="M27.528,5.297c0.03-0.064,0.059-0.129,0.085-0.195c0.745-1.881-0.177-4.008-2.058-4.754
				c-1.881-0.744-4.008,0.178-4.753,2.058c-0.027,0.067-0.05,0.135-0.073,0.201l-0.006-0.003L1.798,50.697
				c-0.745,1.881,0.176,4.009,2.057,4.752c1.881,0.746,4.008-0.176,4.752-2.058L27.535,5.3L27.528,5.297z"/>
			<path id="XMLID_383_" fill="#63AF52" d="M33.004,18.844c0.027-0.064,0.058-0.128,0.082-0.194
				c0.744-1.882-0.176-4.008-2.057-4.754c-1.882-0.744-4.009,0.177-4.753,2.058c-0.026,0.067-0.051,0.134-0.073,0.2l-0.005-0.002
				L12.654,50.697c-0.744,1.881,0.177,4.009,2.058,4.752c1.88,0.746,4.008-0.176,4.752-2.058l13.545-34.544L33.004,18.844z"/>
			<path id="XMLID_382_" fill="#63AF52" d="M42.035,41.268c-1.88-0.744-4.008,0.178-4.752,2.058c-0.026,0.067-0.05,0.134-0.072,0.2
				l-0.007-0.002l-2.807,7.173c-0.745,1.881,0.176,4.009,2.058,4.752c1.881,0.746,4.007-0.176,4.752-2.058l2.808-7.17l-0.005-0.005
				c0.028-0.063,0.058-0.128,0.082-0.194C44.838,44.141,43.917,42.015,42.035,41.268z"/>
			<path id="XMLID_381_" fill="#63AF52" d="M38.448,32.543c0.03-0.065,0.059-0.129,0.085-0.195c0.747-1.89-0.171-4.023-2.052-4.769
				c-1.881-0.743-4.012,0.185-4.758,2.072c-0.027,0.067-0.051,0.134-0.073,0.201l-0.005-0.002l-8.182,20.831
				c-0.747,1.89,0.172,4.024,2.054,4.768c1.88,0.746,4.01-0.183,4.759-2.071l8.178-20.83L38.448,32.543z"/>
		</g>
		<g id="XMLID_338_">
			<g id="XMLID_373_">
				<path id="XMLID_379_" fill="#838C93" d="M5.396,70.744c-1.795,0-3.25-1.66-3.25-4.81c0-3.267,1.455-4.812,3.25-4.812
					c0.605,0,1.278,0.249,1.907,0.675l1.037-1.34c-0.837-0.634-1.83-1.007-2.896-1.007c-2.98,0-5.398,2.563-5.398,6.446
					c0,4.287,2.418,6.442,5.398,6.442c1.138,0,2.195-0.42,3.066-1.139l-0.986-1.283C6.835,70.439,6.073,70.744,5.396,70.744z"/>
				<path id="XMLID_378_" fill="#838C93" d="M43.312,69.917c-0.688,0.521-1.451,0.826-2.127,0.826c-1.797,0-3.25-1.66-3.25-4.81
					c0-3.267,1.453-4.812,3.25-4.812c0.605,0,1.276,0.249,1.906,0.675l1.038-1.34c-0.838-0.634-1.83-1.007-2.897-1.007
					c-2.982,0-5.398,2.563-5.398,6.446c0,4.287,2.416,6.442,5.398,6.442c1.138,0,2.193-0.42,3.065-1.139L43.312,69.917z"/>
				<polygon id="XMLID_377_" fill="#838C93" points="19.072,59.747 16.699,68.889 14.326,59.747 11.64,59.747 10.655,71.954 
					12.508,71.954 13.131,62.344 15.832,71.901 15.916,71.902 15.914,71.915 16.699,71.908 17.484,71.915 17.482,71.902 
					17.566,71.901 20.267,62.344 20.889,71.954 22.743,71.954 21.758,59.747 				"/>
				<path id="XMLID_374_" fill="#838C93" d="M34.052,63.422c-0.022-0.501-0.233-1.986-1.411-2.968
					c-1.023-0.853-3.343-0.787-4.466-0.787l-2.343,0.004v12.235h1.94v-4.666c0.838,0.028,3.699,0.204,4.868-0.77
					c1.178-0.981,1.391-2.466,1.411-2.968h0.001c0-0.01-0.001-0.023-0.001-0.035C34.052,63.453,34.052,63.436,34.052,63.422
					L34.052,63.422z M31.279,65.055c-0.792,0.738-2.836,0.563-3.507,0.536v-4.256c0.673-0.028,2.715-0.203,3.507,0.536
					c0.515,0.479,0.551,1.153,0.56,1.597C31.828,63.911,31.791,64.579,31.279,65.055z"/>
			</g>
			<g id="XMLID_362_">
				<path id="XMLID_372_" fill="#838C93" d="M4.766,80.531c-0.946,0-1.557-0.974-1.557-2.479c0-1.83,0.805-2.482,1.557-2.482
					c0.257,0,0.544,0.103,0.821,0.287l0.336-0.479c-0.346-0.267-0.737-0.405-1.135-0.405c-1.327,0-2.289,1.286-2.289,3.061
					c0,1.858,0.899,3.061,2.289,3.061c0.431,0,0.849-0.161,1.214-0.467l-0.313-0.453C5.384,80.404,5.06,80.531,4.766,80.531z"/>
				<path id="XMLID_369_" fill="#838C93" d="M29.839,75.025c-0.12-0.027-0.236-0.04-0.346-0.04h-0.029
					c-0.03,0-0.04,0.001-0.051,0.002l-0.031,0.001c-0.378,0.017-0.746,0.171-1.066,0.448l-0.044,0.041
					c-0.007,0.007-0.015,0.012-0.019,0.016l-0.022,0.023c-0.573,0.551-0.904,1.473-0.904,2.529c0,1.67,0.664,2.799,1.773,3.021
					c0.123,0.028,0.234,0.04,0.346,0.04h0.049c0.01,0,0.021,0,0.03-0.002l0.032-0.002c0.378-0.016,0.745-0.171,1.065-0.448
					c0.015-0.015,0.03-0.026,0.045-0.04l0.041-0.039c0.574-0.551,0.903-1.474,0.903-2.53C31.611,76.377,30.949,75.248,29.839,75.025
					z M29.464,80.507c-0.246,0-0.521-0.102-0.79-0.295c-0.393-0.375-0.561-1.034-0.561-2.147c0-2.159,0.853-2.481,1.36-2.481
					c0.249,0,0.522,0.103,0.793,0.296c0.39,0.375,0.558,1.032,0.558,2.148C30.824,80.187,29.972,80.507,29.464,80.507z"/>
				<polygon id="XMLID_368_" fill="#838C93" points="8.884,78.232 10.527,78.232 10.527,77.632 8.869,77.632 8.869,75.724 
					10.815,75.724 10.906,75.098 8.201,75.098 8.201,80.994 11.008,80.994 11.008,80.367 8.884,80.367 				"/>
				<polygon id="XMLID_367_" fill="#838C93" points="39.581,80.367 39.581,78.232 41.224,78.232 41.224,77.632 39.567,77.632 
					39.567,75.724 41.513,75.724 41.603,75.098 38.897,75.098 38.897,80.994 41.706,80.994 41.706,80.367 				"/>
				<polygon id="XMLID_366_" fill="#838C93" points="13.814,75.098 13.125,75.098 13.125,80.994 15.701,80.994 15.792,80.367 
					13.808,80.367 				"/>
				<polygon id="XMLID_365_" fill="#838C93" points="23.945,75.098 23.256,75.098 23.256,80.994 25.831,80.994 25.923,80.367 
					23.938,80.367 				"/>
				<path id="XMLID_364_" fill="#838C93" d="M20.906,75.098h-0.69l0.003,4.466c-0.041,0.538-0.484,0.914-1.078,0.914
					c-0.626,0-1.08-0.419-1.08-0.993c0-0.038,0.002-0.075,0.006-0.113l-0.001-1.241l0,0l-0.003-0.236l0.003-2.796h-0.69v4.406
					l0.002,0.048c0.029,0.907,0.753,1.54,1.762,1.54c1.023,0,1.765-0.67,1.765-1.593c0-0.044-0.001-0.088-0.006-0.132L20.906,75.098
					z"/>
				<path id="XMLID_363_" fill="#838C93" d="M35.28,77.529l-0.026-0.012c-0.672-0.316-1.252-0.591-0.94-1.327
					c0.097-0.225,0.328-0.493,0.892-0.493c0.522,0,1.104,0.227,1.316,0.319l0.37-0.474c-0.213-0.144-0.825-0.486-1.864-0.486
					c-0.78,0-1.441,0.721-1.441,1.575c0,0.549,0.261,1.011,0.713,1.275c0.127,0.078,0.31,0.152,0.504,0.233
					c0.688,0.284,1.632,0.677,1.348,1.677c-0.12,0.416-0.556,0.672-1.138,0.672c-0.089-0.004-0.356-0.025-0.642-0.103l-0.042-0.012
					c-0.076-0.022-0.154-0.049-0.228-0.08c-0.193-0.081-0.375-0.174-0.486-0.232l-0.233,0.503c0.145,0.093,0.468,0.277,0.761,0.355
					c0.425,0.111,0.897,0.123,1.079,0.123c0.066,0,0.104,0,0.104,0c0.86,0,1.612-0.801,1.612-1.715
					C36.938,78.641,36.395,78.054,35.28,77.529z"/>
			</g>
			<g id="XMLID_339_">
				<polygon id="XMLID_361_" fill="#838C93" points="30.369,86.198 31.373,86.198 31.373,85.713 30.359,85.713 30.359,84.379 
					31.552,84.379 31.626,83.875 29.942,83.875 29.942,88.201 31.664,88.201 31.664,87.696 30.369,87.696 				"/>
				<polygon id="XMLID_360_" fill="#838C93" points="40.272,87.696 40.272,86.198 41.276,86.198 41.276,85.713 40.263,85.713 
					40.263,84.379 41.456,84.379 41.528,83.875 39.845,83.875 39.845,88.201 41.568,88.201 41.568,87.696 				"/>
				<path id="XMLID_357_" fill="#838C93" d="M9.799,83.816c-0.075-0.02-0.144-0.03-0.214-0.03h-0.02c-0.018-0.001-0.025,0-0.032,0
					l-0.019,0.001c-0.236,0.014-0.467,0.127-0.667,0.33c-0.01,0.009-0.019,0.018-0.027,0.027c-0.005,0.007-0.011,0.012-0.016,0.016
					l-0.011,0.015c-0.36,0.404-0.568,1.08-0.568,1.854c0,1.222,0.417,2.05,1.114,2.212c0.079,0.021,0.149,0.03,0.215,0.03
					l0.02-0.002l0.004,0.057l0.01-0.055H9.585c0.006,0,0.014-0.001,0.019-0.002h0.02c0.236-0.013,0.467-0.125,0.667-0.329
					l0.031-0.032c0.002-0.002,0.008-0.008,0.013-0.013l0.01-0.014c0.363-0.405,0.569-1.081,0.569-1.853
					C10.914,84.805,10.496,83.977,9.799,83.816z M9.567,87.786c-0.153,0-0.322-0.073-0.487-0.212
					c-0.236-0.263-0.339-0.734-0.339-1.531c0-1.544,0.521-1.773,0.832-1.773c0.153,0,0.322,0.074,0.487,0.213
					c0.236,0.263,0.339,0.734,0.339,1.532C10.398,87.557,9.877,87.786,9.567,87.786z"/>
				<polygon id="XMLID_356_" fill="#838C93" points="6.437,88.181 6.92,88.181 6.926,83.875 6.437,83.875 				"/>
				<polygon id="XMLID_355_" fill="#838C93" points="24.389,87.138 23.217,83.875 22.696,83.875 22.696,88.181 23.093,88.181 
					23.097,84.785 24.325,88.181 24.786,88.181 24.791,83.875 24.389,83.875 				"/>
				<polygon id="XMLID_354_" fill="#838C93" points="34.69,87.138 33.516,83.875 32.996,83.875 32.996,88.181 33.391,88.181 
					33.396,84.785 34.626,88.181 35.086,88.181 35.09,83.875 34.69,83.875 				"/>
				<path id="XMLID_353_" fill="#838C93" d="M13.354,86.407h0.556v1.271l-0.029,0.016c-0.139,0.077-0.272,0.117-0.396,0.117
					c-0.609,0-1.002-0.696-1.002-1.77c0-1.308,0.517-1.771,1.002-1.771c0.24,0,0.438,0.143,0.571,0.282l0.218-0.342
					c-0.165-0.217-0.476-0.424-0.776-0.424c-0.878,0-1.515,0.943-1.515,2.24c0,1.362,0.594,2.24,1.515,2.24
					c0.293,0,0.577-0.123,0.822-0.358l-0.035-0.062h0.049v-1.945h-1.039L13.354,86.407z"/>
				<path id="XMLID_350_" fill="#838C93" d="M19.839,83.875l-1.018,4.307h0.394l0.267-1.144h1.244l0.266,1.144h0.394l-1.019-4.307
					H19.839z M19.596,86.55l0.508-2.173l0.506,2.173H19.596z"/>
				<path id="XMLID_349_" fill="#838C93" d="M37.879,85.746c-0.103-0.05-0.228-0.091-0.281-0.108l-0.014-0.005
					c-0.382-0.13-0.798-0.354-0.604-0.938c0.084-0.251,0.21-0.417,0.56-0.417c0.326,0.017,0.657,0.207,0.784,0.291l0.155-0.452
					c-0.182-0.12-0.545-0.297-1.099-0.297c-0.502,0-0.925,0.542-0.925,1.184c0,0.432,0.172,0.814,0.446,1
					c0.06,0.029,0.472,0.215,0.505,0.228c0.591,0.229,0.814,0.602,0.669,1.108c-0.086,0.297-0.348,0.475-0.703,0.475
					c-0.016,0-0.201-0.011-0.406-0.075l-0.034-0.012c-0.039-0.015-0.088-0.033-0.134-0.054c-0.129-0.064-0.247-0.137-0.316-0.179
					l-0.165,0.414c0.083,0.06,0.303,0.214,0.502,0.274c0.271,0.083,0.569,0.09,0.687,0.09c0.041,0,0.063,0,0.063,0
					c0.553,0,1.034-0.601,1.034-1.286C38.602,86.36,38.238,85.89,37.879,85.746z"/>
				<path id="XMLID_346_" fill="#838C93" d="M27.447,83.924l-0.684-0.019h-0.467v4.275h0.151h0.258h0.098h0.32h0.323
					c0.545,0,0.986-0.954,0.986-2.128S27.992,83.924,27.447,83.924z M27.325,87.716l-0.011,0.005h-0.608l0.004-3.268h-0.005
					l0.005-0.063v-0.056h0.139v0.001c0.032-0.001,0.065-0.001,0.099-0.001h0.059c0.685,0.004,0.99,0.536,0.99,1.718
					C27.996,87.011,27.776,87.556,27.325,87.716z"/>
				<path id="XMLID_343_" fill="#838C93" d="M4.319,86.238c0.193-0.048,0.333-0.121,0.417-0.215c0.29-0.327,0.313-0.867,0.315-0.93
					c-0.002-0.063-0.025-0.61-0.315-0.938c-0.226-0.257-0.798-0.283-1.034-0.283c-0.088,0-0.142,0.003-0.142,0.003H3.097v4.307
					h0.397l0.001-1.879h0.093H3.59c0.036,0.002,0.104,0.004,0.188,0.002l0.05,0.033l0.798,1.844H5.22l-0.969-1.927L4.319,86.238z
					 M3.658,85.872c-0.03,0-0.054-0.002-0.073-0.003l-0.001,0.006H3.497v-0.058l0.001-1.513H3.59l0.001,0.006
					c0.019-0.001,0.041-0.001,0.067-0.001c0.222,0,0.62,0.029,0.797,0.23c0.146,0.166,0.178,0.392,0.179,0.552
					c-0.001,0.159-0.033,0.384-0.179,0.549C4.279,85.84,3.881,85.872,3.658,85.872z"/>
				<path id="XMLID_340_" fill="#838C93" d="M17.06,86.238c0.194-0.048,0.335-0.121,0.418-0.215c0.289-0.326,0.313-0.867,0.314-0.93
					c-0.001-0.063-0.025-0.61-0.314-0.938c-0.227-0.257-0.799-0.283-1.035-0.283c-0.088,0-0.142,0.003-0.142,0.003h-0.463v4.307
					h0.397l0.002-1.88h0.094l0.002,0.002c0.037,0.001,0.103,0.002,0.185,0.001l0.05,0.033l0.797,1.844h0.595l-0.97-1.927
					L17.06,86.238z M16.4,85.872c-0.025,0-0.047-0.002-0.065-0.002v0.003H16.24l-0.002-0.056l0.002-1.451l0.009-0.054
					c0,0,0.085-0.003,0.15-0.003c0.223,0,0.62,0.029,0.798,0.23c0.146,0.167,0.179,0.392,0.179,0.552
					c0,0.159-0.033,0.384-0.179,0.549C17.02,85.84,16.623,85.872,16.4,85.872z"/>
			</g>
		</g>
	</g>
</g>
</svg>
