<?xml version="1.0" encoding="utf-8"?>
<!-- Generator: Adobe Illustrator 15.1.0, SVG Export Plug-In . SVG Version: 6.00 Build 0)  -->
<!DOCTYPE svg PUBLIC "-//W3C//DTD SVG 1.1//EN" "http://www.w3.org/Graphics/SVG/1.1/DTD/svg11.dtd">
<svg version="1.1" xmlns="http://www.w3.org/2000/svg" xmlns:xlink="http://www.w3.org/1999/xlink" x="0px" y="0px"
	 width="48.189px" height="48.189px" viewBox="0 0 48.189 48.189" enable-background="new 0 0 48.189 48.189" xml:space="preserve">
<g id="Layer_1" display="none">
	
		<rect x="-144.446" y="-511.884" display="inline" fill="#63AF52" stroke="#000000" stroke-miterlimit="10" width="626" height="624"/>
	<rect x="-139.446" y="-211.053" display="inline" fill="#64B052" width="1920" height="256.235"/>
	<g display="inline">
		<defs>
			<rect id="SVGID_1_" x="-164.446" y="-8.795" width="1970" height="33"/>
		</defs>
		<clipPath id="SVGID_2_">
			<use xlink:href="#SVGID_1_"  overflow="visible"/>
		</clipPath>
		<g opacity="0.2" clip-path="url(#SVGID_2_)">
			<rect x="-164.446" y="-8.795" fill="#FFFFFF" width="5" height="291"/>
			<rect x="-152.446" y="-8.795" fill="#FFFFFF" width="6" height="291"/>
			<rect x="-139.446" y="-8.795" fill="#FFFFFF" width="6" height="291"/>
			<rect x="-126.446" y="-8.795" fill="#FFFFFF" width="5" height="291"/>
			<rect x="-114.446" y="-8.795" fill="#FFFFFF" width="5" height="291"/>
			<rect x="-102.446" y="-8.795" fill="#FFFFFF" width="6" height="291"/>
			<rect x="-89.446" y="-8.795" fill="#FFFFFF" width="5" height="291"/>
			<rect x="-77.446" y="-8.795" fill="#FFFFFF" width="5" height="291"/>
			<rect x="-65.446" y="-8.795" fill="#FFFFFF" width="6" height="291"/>
			<rect x="-52.446" y="-8.795" fill="#FFFFFF" width="6" height="291"/>
			<rect x="-39.446" y="-8.795" fill="#FFFFFF" width="5" height="291"/>
			<rect x="-27.446" y="-8.795" fill="#FFFFFF" width="5" height="291"/>
			<rect x="-15.446" y="-8.795" fill="#FFFFFF" width="5" height="291"/>
			<rect x="-3.446" y="-8.795" fill="#FFFFFF" width="7" height="291"/>
			<rect x="9.554" y="-8.795" fill="#FFFFFF" width="6" height="291"/>
			<rect x="22.554" y="-8.795" fill="#FFFFFF" width="5" height="291"/>
			<rect x="34.554" y="-8.795" fill="#FFFFFF" width="5" height="291"/>
			<rect x="46.554" y="-8.795" fill="#FFFFFF" width="6" height="291"/>
			<rect x="59.554" y="-8.795" fill="#FFFFFF" width="5" height="291"/>
			<rect x="71.554" y="-8.795" fill="#FFFFFF" width="6" height="291"/>
			<rect x="84.554" y="-8.795" fill="#FFFFFF" width="5" height="291"/>
			<rect x="96.554" y="-8.795" fill="#FFFFFF" width="6" height="291"/>
			<rect x="109.554" y="-8.795" fill="#FFFFFF" width="5" height="291"/>
			<rect x="121.554" y="-8.795" fill="#FFFFFF" width="5" height="291"/>
			<rect x="133.554" y="-8.795" fill="#FFFFFF" width="6" height="291"/>
			<rect x="146.554" y="-8.795" fill="#FFFFFF" width="6" height="291"/>
			<rect x="159.554" y="-8.795" fill="#FFFFFF" width="5" height="291"/>
			<rect x="171.554" y="-8.795" fill="#FFFFFF" width="5" height="291"/>
			<rect x="183.554" y="-8.795" fill="#FFFFFF" width="5" height="291"/>
			<rect x="195.554" y="-8.795" fill="#FFFFFF" width="6" height="291"/>
			<rect x="208.554" y="-8.795" fill="#FFFFFF" width="6" height="291"/>
			<rect x="221.554" y="-8.795" fill="#FFFFFF" width="5" height="291"/>
			<rect x="233.554" y="-8.795" fill="#FFFFFF" width="5" height="291"/>
			<rect x="246.554" y="-8.795" fill="#FFFFFF" width="5" height="291"/>
			<rect x="258.554" y="-8.795" fill="#FFFFFF" width="5" height="291"/>
			<rect x="270.554" y="-8.795" fill="#FFFFFF" width="6" height="291"/>
			<rect x="283.554" y="-8.795" fill="#FFFFFF" width="6" height="291"/>
			<rect x="296.554" y="-8.795" fill="#FFFFFF" width="5" height="291"/>
			<rect x="308.554" y="-8.795" fill="#FFFFFF" width="5" height="291"/>
			<rect x="320.554" y="-8.795" fill="#FFFFFF" width="5" height="291"/>
			<rect x="332.554" y="-8.795" fill="#FFFFFF" width="6" height="291"/>
			<rect x="345.554" y="-8.795" fill="#FFFFFF" width="6" height="291"/>
			<rect x="358.554" y="-8.795" fill="#FFFFFF" width="5" height="291"/>
			<rect x="370.554" y="-8.795" fill="#FFFFFF" width="5" height="291"/>
			<rect x="382.554" y="-8.795" fill="#FFFFFF" width="6" height="291"/>
			<rect x="395.554" y="-8.795" fill="#FFFFFF" width="5" height="291"/>
			<rect x="407.554" y="-8.795" fill="#FFFFFF" width="6" height="291"/>
			<rect x="420.554" y="-8.795" fill="#FFFFFF" width="5" height="291"/>
			<rect x="432.554" y="-8.795" fill="#FFFFFF" width="6" height="291"/>
			<rect x="445.554" y="-8.795" fill="#FFFFFF" width="5" height="291"/>
			<rect x="457.554" y="-8.795" fill="#FFFFFF" width="5" height="291"/>
			<rect x="469.554" y="-8.795" fill="#FFFFFF" width="5" height="291"/>
			<rect x="481.554" y="-8.795" fill="#FFFFFF" width="7" height="291"/>
			<rect x="495.554" y="-8.795" fill="#FFFFFF" width="5" height="291"/>
			<rect x="507.554" y="-8.795" fill="#FFFFFF" width="5" height="291"/>
			<rect x="519.554" y="-8.795" fill="#FFFFFF" width="5" height="291"/>
			<rect x="531.554" y="-8.795" fill="#FFFFFF" width="6" height="291"/>
			<rect x="544.554" y="-8.795" fill="#FFFFFF" width="6" height="291"/>
			<rect x="557.554" y="-8.795" fill="#FFFFFF" width="5" height="291"/>
			<rect x="569.554" y="-8.795" fill="#FFFFFF" width="5" height="291"/>
			<rect x="581.554" y="-8.795" fill="#FFFFFF" width="6" height="291"/>
			<rect x="594.554" y="-8.795" fill="#FFFFFF" width="5" height="291"/>
			<rect x="606.554" y="-8.795" fill="#FFFFFF" width="5" height="291"/>
			<rect x="618.554" y="-8.795" fill="#FFFFFF" width="6" height="291"/>
			<rect x="631.554" y="-8.795" fill="#FFFFFF" width="6" height="291"/>
			<rect x="644.554" y="-8.795" fill="#FFFFFF" width="5" height="291"/>
			<rect x="656.554" y="-8.795" fill="#FFFFFF" width="5" height="291"/>
			<rect x="668.554" y="-8.795" fill="#FFFFFF" width="5" height="291"/>
			<rect x="681.554" y="-8.795" fill="#FFFFFF" width="6" height="291"/>
			<rect x="693.554" y="-8.795" fill="#FFFFFF" width="6" height="291"/>
			<rect x="706.554" y="-8.795" fill="#FFFFFF" width="5" height="291"/>
			<rect x="718.554" y="-8.795" fill="#FFFFFF" width="6" height="291"/>
			<rect x="731.554" y="-8.795" fill="#FFFFFF" width="5" height="291"/>
			<rect x="743.554" y="-8.795" fill="#FFFFFF" width="5" height="291"/>
			<rect x="755.554" y="-8.795" fill="#FFFFFF" width="6" height="291"/>
			<rect x="768.554" y="-8.795" fill="#FFFFFF" width="6" height="291"/>
			<rect x="781.554" y="-8.795" fill="#FFFFFF" width="5" height="291"/>
			<rect x="793.554" y="-8.795" fill="#FFFFFF" width="5" height="291"/>
			<rect x="805.554" y="-8.795" fill="#FFFFFF" width="5" height="291"/>
			<rect x="817.554" y="-8.795" fill="#FFFFFF" width="6" height="291"/>
			<rect x="830.554" y="-8.795" fill="#FFFFFF" width="6" height="291"/>
			<rect x="843.554" y="-8.795" fill="#FFFFFF" width="5" height="291"/>
			<rect x="855.554" y="-8.795" fill="#FFFFFF" width="5" height="291"/>
			<rect x="867.554" y="-8.795" fill="#FFFFFF" width="6" height="291"/>
			<rect x="880.554" y="-8.795" fill="#FFFFFF" width="5" height="291"/>
			<rect x="892.554" y="-8.795" fill="#FFFFFF" width="6" height="291"/>
			<rect x="905.554" y="-8.795" fill="#FFFFFF" width="5" height="291"/>
			<rect x="917.554" y="-8.795" fill="#FFFFFF" width="6" height="291"/>
			<rect x="930.554" y="-8.795" fill="#FFFFFF" width="5" height="291"/>
			<rect x="942.554" y="-8.795" fill="#FFFFFF" width="5" height="291"/>
			<rect x="954.554" y="-8.795" fill="#FFFFFF" width="6" height="291"/>
			<rect x="967.554" y="-8.795" fill="#FFFFFF" width="6" height="291"/>
			<rect x="980.554" y="-8.795" fill="#FFFFFF" width="5" height="291"/>
			<rect x="992.554" y="-8.795" fill="#FFFFFF" width="5" height="291"/>
			<rect x="1004.554" y="-8.795" fill="#FFFFFF" width="5" height="291"/>
			<rect x="1016.554" y="-8.795" fill="#FFFFFF" width="6" height="291"/>
			<rect x="1029.554" y="-8.795" fill="#FFFFFF" width="6" height="291"/>
			<rect x="1042.554" y="-8.795" fill="#FFFFFF" width="5" height="291"/>
			<rect x="1054.554" y="-8.795" fill="#FFFFFF" width="5" height="291"/>
			<rect x="1066.554" y="-8.795" fill="#FFFFFF" width="6" height="291"/>
			<rect x="1079.554" y="-8.795" fill="#FFFFFF" width="5" height="291"/>
			<rect x="1091.554" y="-8.795" fill="#FFFFFF" width="6" height="291"/>
			<rect x="1104.554" y="-8.795" fill="#FFFFFF" width="5" height="291"/>
			<rect x="1117.554" y="-8.795" fill="#FFFFFF" width="5" height="291"/>
			<rect x="1129.554" y="-8.795" fill="#FFFFFF" width="5" height="291"/>
			<rect x="1141.554" y="-8.795" fill="#FFFFFF" width="5" height="291"/>
			<rect x="1153.554" y="-8.795" fill="#FFFFFF" width="6" height="291"/>
			<rect x="1166.554" y="-8.795" fill="#FFFFFF" width="6" height="291"/>
			<rect x="1179.554" y="-8.795" fill="#FFFFFF" width="5" height="291"/>
			<rect x="1191.554" y="-8.795" fill="#FFFFFF" width="5" height="291"/>
			<rect x="1203.554" y="-8.795" fill="#FFFFFF" width="6" height="291"/>
			<rect x="1216.554" y="-8.795" fill="#FFFFFF" width="5" height="291"/>
			<rect x="1228.554" y="-8.795" fill="#FFFFFF" width="6" height="291"/>
			<rect x="1241.554" y="-8.795" fill="#FFFFFF" width="5" height="291"/>
			<rect x="1253.554" y="-8.795" fill="#FFFFFF" width="6" height="291"/>
			<rect x="1266.554" y="-8.795" fill="#FFFFFF" width="5" height="291"/>
			<rect x="1278.554" y="-8.795" fill="#FFFFFF" width="5" height="291"/>
			<rect x="1290.554" y="-8.795" fill="#FFFFFF" width="5" height="291"/>
			<rect x="1302.554" y="-8.795" fill="#FFFFFF" width="7" height="291"/>
			<rect x="1316.554" y="-8.795" fill="#FFFFFF" width="5" height="291"/>
			<rect x="1328.554" y="-8.795" fill="#FFFFFF" width="5" height="291"/>
			<rect x="1340.554" y="-8.795" fill="#FFFFFF" width="5" height="291"/>
			<rect x="1352.554" y="-8.795" fill="#FFFFFF" width="6" height="291"/>
			<rect x="1365.554" y="-8.795" fill="#FFFFFF" width="5" height="291"/>
			<rect x="1377.554" y="-8.795" fill="#FFFFFF" width="6" height="291"/>
			<rect x="1390.554" y="-8.795" fill="#FFFFFF" width="5" height="291"/>
			<rect x="1402.554" y="-8.795" fill="#FFFFFF" width="6" height="291"/>
			<rect x="1415.554" y="-8.795" fill="#FFFFFF" width="5" height="291"/>
			<rect x="1427.554" y="-8.795" fill="#FFFFFF" width="5" height="291"/>
			<rect x="1439.554" y="-8.795" fill="#FFFFFF" width="6" height="291"/>
			<rect x="1452.554" y="-8.795" fill="#FFFFFF" width="6" height="291"/>
			<rect x="1465.554" y="-8.795" fill="#FFFFFF" width="5" height="291"/>
			<rect x="1477.554" y="-8.795" fill="#FFFFFF" width="5" height="291"/>
			<rect x="1489.554" y="-8.795" fill="#FFFFFF" width="5" height="291"/>
			<rect x="1501.554" y="-8.795" fill="#FFFFFF" width="6" height="291"/>
			<rect x="1514.554" y="-8.795" fill="#FFFFFF" width="6" height="291"/>
			<rect x="1527.554" y="-8.795" fill="#FFFFFF" width="5" height="291"/>
			<rect x="1539.554" y="-8.795" fill="#FFFFFF" width="5" height="291"/>
			<rect x="1552.554" y="-8.795" fill="#FFFFFF" width="5" height="291"/>
			<rect x="1564.554" y="-8.795" fill="#FFFFFF" width="5" height="291"/>
			<rect x="1576.554" y="-8.795" fill="#FFFFFF" width="6" height="291"/>
			<rect x="1589.554" y="-8.795" fill="#FFFFFF" width="6" height="291"/>
			<rect x="1602.554" y="-8.795" fill="#FFFFFF" width="5" height="291"/>
			<rect x="1614.554" y="-8.795" fill="#FFFFFF" width="5" height="291"/>
			<rect x="1626.554" y="-8.795" fill="#FFFFFF" width="5" height="291"/>
			<rect x="1638.554" y="-8.795" fill="#FFFFFF" width="6" height="291"/>
			<rect x="1651.554" y="-8.795" fill="#FFFFFF" width="6" height="291"/>
			<rect x="1664.554" y="-8.795" fill="#FFFFFF" width="5" height="291"/>
			<rect x="1676.554" y="-8.795" fill="#FFFFFF" width="5" height="291"/>
			<rect x="1688.554" y="-8.795" fill="#FFFFFF" width="6" height="291"/>
			<rect x="1701.554" y="-8.795" fill="#FFFFFF" width="5" height="291"/>
			<rect x="1713.554" y="-8.795" fill="#FFFFFF" width="6" height="291"/>
			<rect x="1726.554" y="-8.795" fill="#FFFFFF" width="5" height="291"/>
			<rect x="1738.554" y="-8.795" fill="#FFFFFF" width="6" height="291"/>
			<rect x="1751.554" y="-8.795" fill="#FFFFFF" width="5" height="291"/>
			<rect x="1763.554" y="-8.795" fill="#FFFFFF" width="5" height="291"/>
			<rect x="1775.554" y="-8.795" fill="#FFFFFF" width="6" height="291"/>
			<rect x="1788.554" y="-8.795" fill="#FFFFFF" width="6" height="291"/>
			<rect x="1801.554" y="-8.795" fill="#FFFFFF" width="5" height="291"/>
		</g>
	</g>
	<g display="inline">
	</g>
</g>
<g id="Layer_3" display="none">
	<rect x="-1.575" y="-1.727" display="inline" width="52.129" height="51.642"/>
</g>
<g id="Layer_2">
	<rect x="-0.745" y="-0.745" fill="none" width="49.679" height="49.68"/>
	<path fill="#FFFFFF" d="M24.095,0.636c-12.936,0-23.459,10.523-23.459,23.459s10.523,23.459,23.459,23.459
		S47.554,37.03,47.554,24.095S37.031,0.636,24.095,0.636 M37.865,37.865c-3.678,3.679-8.568,5.704-13.771,5.704
		c-5.203,0-10.092-2.025-13.769-5.704c-3.678-3.678-5.704-8.568-5.704-13.771s2.026-10.093,5.704-13.771
		c3.676-3.679,8.566-5.704,13.769-5.704c5.202,0,10.092,2.025,13.771,5.704c3.676,3.678,5.702,8.568,5.702,13.771
		S41.542,34.188,37.865,37.865"/>
	<g>
		<path fill="#FFFFFF" d="M17.462,23.776h-3.656v3.404h4.09v1.023h-5.322v-9.441h5.112v1.021h-3.88v2.984h3.656V23.776z"/>
		<path fill="#FFFFFF" d="M19.475,28.204v-9.441h1.345l3.012,4.777c0.687,1.105,1.247,2.1,1.681,3.066l0.042-0.014
			c-0.111-1.26-0.14-2.41-0.14-3.881v-3.949h1.148v9.441h-1.232l-2.998-4.791c-0.658-1.051-1.288-2.129-1.751-3.152l-0.042,0.014
			c0.07,1.191,0.084,2.326,0.084,3.895v4.035H19.475z"/>
		<path fill="#FFFFFF" d="M35.887,27.784c-0.547,0.209-1.639,0.518-2.914,0.518c-1.429,0-2.605-0.365-3.529-1.246
			c-0.813-0.785-1.317-2.045-1.317-3.516c0-2.816,1.947-4.875,5.113-4.875c1.093,0,1.961,0.238,2.367,0.434l-0.309,0.994
			c-0.504-0.238-1.134-0.406-2.087-0.406c-2.297,0-3.796,1.43-3.796,3.797c0,2.395,1.429,3.811,3.642,3.811
			c0.799,0,1.345-0.113,1.625-0.254v-2.814h-1.904v-0.98h3.109V27.784z"/>
	</g>
</g>
</svg>
