<?xml version="1.0" encoding="utf-8"?>
<!-- Generator: Adobe Illustrator 15.1.0, SVG Export Plug-In . SVG Version: 6.00 Build 0)  -->
<!DOCTYPE svg PUBLIC "-//W3C//DTD SVG 1.1//EN" "http://www.w3.org/Graphics/SVG/1.1/DTD/svg11.dtd">
<svg version="1.1" xmlns="http://www.w3.org/2000/svg" xmlns:xlink="http://www.w3.org/1999/xlink" x="0px" y="0px"
	 width="267.554px" height="48.189px" viewBox="0 0 267.554 48.189" enable-background="new 0 0 267.554 48.189"
	 xml:space="preserve">
<g id="Layer_1" display="none">
	
		<rect x="-144.446" y="-511.884" display="inline" fill="#63AF52" stroke="#000000" stroke-miterlimit="10" width="626" height="624"/>
	<rect x="-139.446" y="-211.053" display="inline" fill="#64B052" width="1920" height="256.235"/>
	<g display="inline">
		<defs>
			<rect id="SVGID_1_" x="-164.446" y="-8.795" width="1970" height="33"/>
		</defs>
		<clipPath id="SVGID_2_">
			<use xlink:href="#SVGID_1_"  overflow="visible"/>
		</clipPath>
		<g opacity="0.2" clip-path="url(#SVGID_2_)">
			<rect x="-164.446" y="-8.795" fill="#FFFFFF" width="5" height="291"/>
			<rect x="-152.446" y="-8.795" fill="#FFFFFF" width="6" height="291"/>
			<rect x="-139.446" y="-8.795" fill="#FFFFFF" width="6" height="291"/>
			<rect x="-126.446" y="-8.795" fill="#FFFFFF" width="5" height="291"/>
			<rect x="-114.446" y="-8.795" fill="#FFFFFF" width="5" height="291"/>
			<rect x="-102.446" y="-8.795" fill="#FFFFFF" width="6" height="291"/>
			<rect x="-89.446" y="-8.795" fill="#FFFFFF" width="5" height="291"/>
			<rect x="-77.446" y="-8.795" fill="#FFFFFF" width="5" height="291"/>
			<rect x="-65.446" y="-8.795" fill="#FFFFFF" width="6" height="291"/>
			<rect x="-52.446" y="-8.795" fill="#FFFFFF" width="6" height="291"/>
			<rect x="-39.446" y="-8.795" fill="#FFFFFF" width="5" height="291"/>
			<rect x="-27.446" y="-8.795" fill="#FFFFFF" width="5" height="291"/>
			<rect x="-15.446" y="-8.795" fill="#FFFFFF" width="5" height="291"/>
			<rect x="-3.446" y="-8.795" fill="#FFFFFF" width="7" height="291"/>
			<rect x="9.554" y="-8.795" fill="#FFFFFF" width="6" height="291"/>
			<rect x="22.554" y="-8.795" fill="#FFFFFF" width="5" height="291"/>
			<rect x="34.554" y="-8.795" fill="#FFFFFF" width="5" height="291"/>
			<rect x="46.554" y="-8.795" fill="#FFFFFF" width="6" height="291"/>
			<rect x="59.554" y="-8.795" fill="#FFFFFF" width="5" height="291"/>
			<rect x="71.554" y="-8.795" fill="#FFFFFF" width="6" height="291"/>
			<rect x="84.554" y="-8.795" fill="#FFFFFF" width="5" height="291"/>
			<rect x="96.554" y="-8.795" fill="#FFFFFF" width="6" height="291"/>
			<rect x="109.554" y="-8.795" fill="#FFFFFF" width="5" height="291"/>
			<rect x="121.554" y="-8.795" fill="#FFFFFF" width="5" height="291"/>
			<rect x="133.554" y="-8.795" fill="#FFFFFF" width="6" height="291"/>
			<rect x="146.554" y="-8.795" fill="#FFFFFF" width="6" height="291"/>
			<rect x="159.554" y="-8.795" fill="#FFFFFF" width="5" height="291"/>
			<rect x="171.554" y="-8.795" fill="#FFFFFF" width="5" height="291"/>
			<rect x="183.554" y="-8.795" fill="#FFFFFF" width="5" height="291"/>
			<rect x="195.554" y="-8.795" fill="#FFFFFF" width="6" height="291"/>
			<rect x="208.554" y="-8.795" fill="#FFFFFF" width="6" height="291"/>
			<rect x="221.554" y="-8.795" fill="#FFFFFF" width="5" height="291"/>
			<rect x="233.554" y="-8.795" fill="#FFFFFF" width="5" height="291"/>
			<rect x="246.554" y="-8.795" fill="#FFFFFF" width="5" height="291"/>
			<rect x="258.554" y="-8.795" fill="#FFFFFF" width="5" height="291"/>
			<rect x="270.554" y="-8.795" fill="#FFFFFF" width="6" height="291"/>
			<rect x="283.554" y="-8.795" fill="#FFFFFF" width="6" height="291"/>
			<rect x="296.554" y="-8.795" fill="#FFFFFF" width="5" height="291"/>
			<rect x="308.554" y="-8.795" fill="#FFFFFF" width="5" height="291"/>
			<rect x="320.554" y="-8.795" fill="#FFFFFF" width="5" height="291"/>
			<rect x="332.554" y="-8.795" fill="#FFFFFF" width="6" height="291"/>
			<rect x="345.554" y="-8.795" fill="#FFFFFF" width="6" height="291"/>
			<rect x="358.554" y="-8.795" fill="#FFFFFF" width="5" height="291"/>
			<rect x="370.554" y="-8.795" fill="#FFFFFF" width="5" height="291"/>
			<rect x="382.554" y="-8.795" fill="#FFFFFF" width="6" height="291"/>
			<rect x="395.554" y="-8.795" fill="#FFFFFF" width="5" height="291"/>
			<rect x="407.554" y="-8.795" fill="#FFFFFF" width="6" height="291"/>
			<rect x="420.554" y="-8.795" fill="#FFFFFF" width="5" height="291"/>
			<rect x="432.554" y="-8.795" fill="#FFFFFF" width="6" height="291"/>
			<rect x="445.554" y="-8.795" fill="#FFFFFF" width="5" height="291"/>
			<rect x="457.554" y="-8.795" fill="#FFFFFF" width="5" height="291"/>
			<rect x="469.554" y="-8.795" fill="#FFFFFF" width="5" height="291"/>
			<rect x="481.554" y="-8.795" fill="#FFFFFF" width="7" height="291"/>
			<rect x="495.554" y="-8.795" fill="#FFFFFF" width="5" height="291"/>
			<rect x="507.554" y="-8.795" fill="#FFFFFF" width="5" height="291"/>
			<rect x="519.554" y="-8.795" fill="#FFFFFF" width="5" height="291"/>
			<rect x="531.554" y="-8.795" fill="#FFFFFF" width="6" height="291"/>
			<rect x="544.554" y="-8.795" fill="#FFFFFF" width="6" height="291"/>
			<rect x="557.554" y="-8.795" fill="#FFFFFF" width="5" height="291"/>
			<rect x="569.554" y="-8.795" fill="#FFFFFF" width="5" height="291"/>
			<rect x="581.554" y="-8.795" fill="#FFFFFF" width="6" height="291"/>
			<rect x="594.554" y="-8.795" fill="#FFFFFF" width="5" height="291"/>
			<rect x="606.554" y="-8.795" fill="#FFFFFF" width="5" height="291"/>
			<rect x="618.554" y="-8.795" fill="#FFFFFF" width="6" height="291"/>
			<rect x="631.554" y="-8.795" fill="#FFFFFF" width="6" height="291"/>
			<rect x="644.554" y="-8.795" fill="#FFFFFF" width="5" height="291"/>
			<rect x="656.554" y="-8.795" fill="#FFFFFF" width="5" height="291"/>
			<rect x="668.554" y="-8.795" fill="#FFFFFF" width="5" height="291"/>
			<rect x="681.554" y="-8.795" fill="#FFFFFF" width="6" height="291"/>
			<rect x="693.554" y="-8.795" fill="#FFFFFF" width="6" height="291"/>
			<rect x="706.554" y="-8.795" fill="#FFFFFF" width="5" height="291"/>
			<rect x="718.554" y="-8.795" fill="#FFFFFF" width="6" height="291"/>
			<rect x="731.554" y="-8.795" fill="#FFFFFF" width="5" height="291"/>
			<rect x="743.554" y="-8.795" fill="#FFFFFF" width="5" height="291"/>
			<rect x="755.554" y="-8.795" fill="#FFFFFF" width="6" height="291"/>
			<rect x="768.554" y="-8.795" fill="#FFFFFF" width="6" height="291"/>
			<rect x="781.554" y="-8.795" fill="#FFFFFF" width="5" height="291"/>
			<rect x="793.554" y="-8.795" fill="#FFFFFF" width="5" height="291"/>
			<rect x="805.554" y="-8.795" fill="#FFFFFF" width="5" height="291"/>
			<rect x="817.554" y="-8.795" fill="#FFFFFF" width="6" height="291"/>
			<rect x="830.554" y="-8.795" fill="#FFFFFF" width="6" height="291"/>
			<rect x="843.554" y="-8.795" fill="#FFFFFF" width="5" height="291"/>
			<rect x="855.554" y="-8.795" fill="#FFFFFF" width="5" height="291"/>
			<rect x="867.554" y="-8.795" fill="#FFFFFF" width="6" height="291"/>
			<rect x="880.554" y="-8.795" fill="#FFFFFF" width="5" height="291"/>
			<rect x="892.554" y="-8.795" fill="#FFFFFF" width="6" height="291"/>
			<rect x="905.554" y="-8.795" fill="#FFFFFF" width="5" height="291"/>
			<rect x="917.554" y="-8.795" fill="#FFFFFF" width="6" height="291"/>
			<rect x="930.554" y="-8.795" fill="#FFFFFF" width="5" height="291"/>
			<rect x="942.554" y="-8.795" fill="#FFFFFF" width="5" height="291"/>
			<rect x="954.554" y="-8.795" fill="#FFFFFF" width="6" height="291"/>
			<rect x="967.554" y="-8.795" fill="#FFFFFF" width="6" height="291"/>
			<rect x="980.554" y="-8.795" fill="#FFFFFF" width="5" height="291"/>
			<rect x="992.554" y="-8.795" fill="#FFFFFF" width="5" height="291"/>
			<rect x="1004.554" y="-8.795" fill="#FFFFFF" width="5" height="291"/>
			<rect x="1016.554" y="-8.795" fill="#FFFFFF" width="6" height="291"/>
			<rect x="1029.554" y="-8.795" fill="#FFFFFF" width="6" height="291"/>
			<rect x="1042.554" y="-8.795" fill="#FFFFFF" width="5" height="291"/>
			<rect x="1054.554" y="-8.795" fill="#FFFFFF" width="5" height="291"/>
			<rect x="1066.554" y="-8.795" fill="#FFFFFF" width="6" height="291"/>
			<rect x="1079.554" y="-8.795" fill="#FFFFFF" width="5" height="291"/>
			<rect x="1091.554" y="-8.795" fill="#FFFFFF" width="6" height="291"/>
			<rect x="1104.554" y="-8.795" fill="#FFFFFF" width="5" height="291"/>
			<rect x="1117.554" y="-8.795" fill="#FFFFFF" width="5" height="291"/>
			<rect x="1129.554" y="-8.795" fill="#FFFFFF" width="5" height="291"/>
			<rect x="1141.554" y="-8.795" fill="#FFFFFF" width="5" height="291"/>
			<rect x="1153.554" y="-8.795" fill="#FFFFFF" width="6" height="291"/>
			<rect x="1166.554" y="-8.795" fill="#FFFFFF" width="6" height="291"/>
			<rect x="1179.554" y="-8.795" fill="#FFFFFF" width="5" height="291"/>
			<rect x="1191.554" y="-8.795" fill="#FFFFFF" width="5" height="291"/>
			<rect x="1203.554" y="-8.795" fill="#FFFFFF" width="6" height="291"/>
			<rect x="1216.554" y="-8.795" fill="#FFFFFF" width="5" height="291"/>
			<rect x="1228.554" y="-8.795" fill="#FFFFFF" width="6" height="291"/>
			<rect x="1241.554" y="-8.795" fill="#FFFFFF" width="5" height="291"/>
			<rect x="1253.554" y="-8.795" fill="#FFFFFF" width="6" height="291"/>
			<rect x="1266.554" y="-8.795" fill="#FFFFFF" width="5" height="291"/>
			<rect x="1278.554" y="-8.795" fill="#FFFFFF" width="5" height="291"/>
			<rect x="1290.554" y="-8.795" fill="#FFFFFF" width="5" height="291"/>
			<rect x="1302.554" y="-8.795" fill="#FFFFFF" width="7" height="291"/>
			<rect x="1316.554" y="-8.795" fill="#FFFFFF" width="5" height="291"/>
			<rect x="1328.554" y="-8.795" fill="#FFFFFF" width="5" height="291"/>
			<rect x="1340.554" y="-8.795" fill="#FFFFFF" width="5" height="291"/>
			<rect x="1352.554" y="-8.795" fill="#FFFFFF" width="6" height="291"/>
			<rect x="1365.554" y="-8.795" fill="#FFFFFF" width="5" height="291"/>
			<rect x="1377.554" y="-8.795" fill="#FFFFFF" width="6" height="291"/>
			<rect x="1390.554" y="-8.795" fill="#FFFFFF" width="5" height="291"/>
			<rect x="1402.554" y="-8.795" fill="#FFFFFF" width="6" height="291"/>
			<rect x="1415.554" y="-8.795" fill="#FFFFFF" width="5" height="291"/>
			<rect x="1427.554" y="-8.795" fill="#FFFFFF" width="5" height="291"/>
			<rect x="1439.554" y="-8.795" fill="#FFFFFF" width="6" height="291"/>
			<rect x="1452.554" y="-8.795" fill="#FFFFFF" width="6" height="291"/>
			<rect x="1465.554" y="-8.795" fill="#FFFFFF" width="5" height="291"/>
			<rect x="1477.554" y="-8.795" fill="#FFFFFF" width="5" height="291"/>
			<rect x="1489.554" y="-8.795" fill="#FFFFFF" width="5" height="291"/>
			<rect x="1501.554" y="-8.795" fill="#FFFFFF" width="6" height="291"/>
			<rect x="1514.554" y="-8.795" fill="#FFFFFF" width="6" height="291"/>
			<rect x="1527.554" y="-8.795" fill="#FFFFFF" width="5" height="291"/>
			<rect x="1539.554" y="-8.795" fill="#FFFFFF" width="5" height="291"/>
			<rect x="1552.554" y="-8.795" fill="#FFFFFF" width="5" height="291"/>
			<rect x="1564.554" y="-8.795" fill="#FFFFFF" width="5" height="291"/>
			<rect x="1576.554" y="-8.795" fill="#FFFFFF" width="6" height="291"/>
			<rect x="1589.554" y="-8.795" fill="#FFFFFF" width="6" height="291"/>
			<rect x="1602.554" y="-8.795" fill="#FFFFFF" width="5" height="291"/>
			<rect x="1614.554" y="-8.795" fill="#FFFFFF" width="5" height="291"/>
			<rect x="1626.554" y="-8.795" fill="#FFFFFF" width="5" height="291"/>
			<rect x="1638.554" y="-8.795" fill="#FFFFFF" width="6" height="291"/>
			<rect x="1651.554" y="-8.795" fill="#FFFFFF" width="6" height="291"/>
			<rect x="1664.554" y="-8.795" fill="#FFFFFF" width="5" height="291"/>
			<rect x="1676.554" y="-8.795" fill="#FFFFFF" width="5" height="291"/>
			<rect x="1688.554" y="-8.795" fill="#FFFFFF" width="6" height="291"/>
			<rect x="1701.554" y="-8.795" fill="#FFFFFF" width="5" height="291"/>
			<rect x="1713.554" y="-8.795" fill="#FFFFFF" width="6" height="291"/>
			<rect x="1726.554" y="-8.795" fill="#FFFFFF" width="5" height="291"/>
			<rect x="1738.554" y="-8.795" fill="#FFFFFF" width="6" height="291"/>
			<rect x="1751.554" y="-8.795" fill="#FFFFFF" width="5" height="291"/>
			<rect x="1763.554" y="-8.795" fill="#FFFFFF" width="5" height="291"/>
			<rect x="1775.554" y="-8.795" fill="#FFFFFF" width="6" height="291"/>
			<rect x="1788.554" y="-8.795" fill="#FFFFFF" width="6" height="291"/>
			<rect x="1801.554" y="-8.795" fill="#FFFFFF" width="5" height="291"/>
		</g>
	</g>
	<g display="inline">
	</g>
</g>
<g id="Layer_3" display="none">
	<rect x="-5.575" y="-1.726" display="inline" width="340.796" height="51.642"/>
</g>
<g id="Layer_2">
	<path fill="#FFFFFF" d="M37.947,14.713c0-0.621-0.504-1.125-1.123-1.125H11.367c-0.621,0-1.125,0.504-1.125,1.125v18.766
		c0,0.619,0.504,1.123,1.125,1.123h25.457c0.619,0,1.123-0.504,1.123-1.123V14.713z M33.842,16.875l-9.459,7.168l-9.701-7.168
		H33.842z M34.719,30.219c0,1.127-0.586,1.213-0.764,1.213H14.756c-0.588,0-1.285-0.656-1.285-1.213V19.605l10.223,7.855
		c0.154,0.098,0.348,0.15,0.545,0.15s0.375-0.053,0.518-0.15l9.963-8.004V30.219z"/>
	<rect x="-0.745" y="-0.745" fill="none" width="49.679" height="49.68"/>
	<path fill="#FFFFFF" d="M24.095,0.636c-12.936,0-23.459,10.523-23.459,23.459s10.523,23.459,23.459,23.459
		S47.554,37.03,47.554,24.095S37.031,0.636,24.095,0.636 M37.865,37.865c-3.678,3.679-8.568,5.704-13.771,5.704
		c-5.203,0-10.092-2.025-13.769-5.704c-3.678-3.678-5.704-8.568-5.704-13.771s2.026-10.093,5.704-13.771
		c3.676-3.679,8.566-5.704,13.769-5.704c5.202,0,10.092,2.025,13.771,5.704c3.676,3.678,5.702,8.568,5.702,13.771
		S41.542,34.188,37.865,37.865"/>
	<path fill="#FFFFFF" d="M36.267,7.095c0.426,0.44,0.831,0.903,1.224,1.377c3.376,2.037,6.43,6.567,7.29,10.228
		c1.037,4.418,0.884,9.24-0.693,13.511c-0.227,2.004-0.798,3.891-1.971,5.441c-1.083,1.432-2.262,2.537-3.535,3.443h228.973v-34
		H36.267z"/>
	<g>
		<path fill="#989898" d="M72.008,28.798v-9.94h4.256c0.438,0,0.842,0.092,1.211,0.273c0.368,0.182,0.686,0.425,0.952,0.728
			c0.266,0.304,0.474,0.645,0.623,1.022c0.148,0.378,0.224,0.763,0.224,1.155c0,0.345-0.049,0.679-0.147,1.001
			c-0.098,0.321-0.237,0.613-0.42,0.875c-0.182,0.261-0.401,0.485-0.657,0.672c-0.257,0.187-0.544,0.322-0.861,0.406l2.408,3.808
			h-1.429l-2.268-3.57h-2.632v3.57H72.008z M73.268,24.107h3.01c0.261,0,0.497-0.056,0.707-0.168c0.21-0.111,0.39-0.264,0.539-0.455
			c0.149-0.19,0.266-0.412,0.35-0.664C77.958,22.567,78,22.307,78,22.036c0-0.28-0.049-0.544-0.146-0.791
			c-0.099-0.247-0.229-0.467-0.393-0.658c-0.163-0.191-0.354-0.341-0.573-0.448c-0.22-0.107-0.451-0.161-0.693-0.161h-2.926V24.107z
			"/>
		<path fill="#989898" d="M84.005,28.938c-0.551,0-1.055-0.1-1.512-0.301c-0.457-0.2-0.85-0.474-1.176-0.819
			c-0.327-0.345-0.581-0.748-0.763-1.211c-0.183-0.462-0.273-0.949-0.273-1.463c0-0.513,0.091-0.998,0.273-1.456
			c0.182-0.457,0.438-0.858,0.77-1.204c0.331-0.345,0.726-0.618,1.184-0.818c0.457-0.201,0.961-0.301,1.512-0.301
			s1.052,0.103,1.505,0.308c0.452,0.205,0.838,0.479,1.155,0.819c0.316,0.341,0.562,0.737,0.734,1.189
			c0.173,0.453,0.26,0.922,0.26,1.407c0,0.103-0.003,0.196-0.008,0.28s-0.012,0.149-0.021,0.195h-6.063
			c0.028,0.364,0.112,0.695,0.252,0.994c0.141,0.299,0.322,0.556,0.546,0.771c0.225,0.215,0.479,0.383,0.764,0.504
			c0.284,0.121,0.585,0.182,0.902,0.182c0.225,0,0.443-0.03,0.658-0.091s0.415-0.143,0.603-0.245
			c0.187-0.103,0.352-0.229,0.497-0.378c0.145-0.149,0.254-0.317,0.329-0.504l1.063,0.294c-0.121,0.271-0.287,0.518-0.497,0.742
			c-0.21,0.224-0.453,0.418-0.728,0.581c-0.275,0.163-0.581,0.292-0.917,0.385S84.37,28.938,84.005,28.938z M86.512,24.654
			c-0.028-0.346-0.115-0.665-0.26-0.959c-0.145-0.295-0.326-0.544-0.546-0.749c-0.219-0.206-0.474-0.366-0.763-0.483
			c-0.289-0.116-0.598-0.175-0.924-0.175c-0.327,0-0.635,0.059-0.924,0.175c-0.29,0.117-0.544,0.28-0.764,0.49
			c-0.219,0.21-0.396,0.46-0.531,0.749c-0.136,0.289-0.218,0.606-0.245,0.952H86.512z"/>
		<path fill="#989898" d="M88.555,25.13c0-0.514,0.089-0.999,0.266-1.456c0.178-0.457,0.43-0.856,0.757-1.197
			c0.326-0.34,0.716-0.611,1.169-0.812c0.452-0.201,0.959-0.301,1.519-0.301c0.729,0,1.355,0.16,1.883,0.482
			s0.927,0.754,1.197,1.295l-1.204,0.378c-0.187-0.345-0.448-0.613-0.784-0.805s-0.709-0.287-1.12-0.287
			c-0.336,0-0.653,0.068-0.951,0.203c-0.299,0.136-0.556,0.324-0.771,0.567c-0.215,0.242-0.385,0.527-0.511,0.854
			c-0.126,0.327-0.189,0.687-0.189,1.078c0,0.383,0.065,0.742,0.196,1.078s0.306,0.628,0.525,0.875
			c0.219,0.247,0.476,0.44,0.77,0.581c0.294,0.14,0.609,0.21,0.945,0.21c0.215,0,0.427-0.03,0.637-0.091s0.401-0.143,0.574-0.245
			s0.324-0.222,0.455-0.357c0.131-0.135,0.224-0.282,0.28-0.44l1.203,0.363c-0.111,0.271-0.268,0.519-0.469,0.742
			c-0.2,0.225-0.437,0.416-0.707,0.574c-0.271,0.159-0.571,0.285-0.902,0.378c-0.332,0.093-0.68,0.14-1.044,0.14
			c-0.551,0-1.055-0.103-1.512-0.308s-0.85-0.48-1.176-0.826c-0.327-0.345-0.581-0.749-0.763-1.211
			C88.646,26.131,88.555,25.644,88.555,25.13z"/>
		<path fill="#989898" d="M99.965,28.938c-0.551,0-1.055-0.1-1.512-0.301c-0.457-0.2-0.85-0.474-1.176-0.819
			c-0.327-0.345-0.581-0.748-0.763-1.211c-0.183-0.462-0.273-0.949-0.273-1.463c0-0.513,0.091-0.998,0.273-1.456
			c0.182-0.457,0.438-0.858,0.77-1.204c0.331-0.345,0.726-0.618,1.184-0.818c0.457-0.201,0.961-0.301,1.512-0.301
			s1.052,0.103,1.505,0.308c0.452,0.205,0.838,0.479,1.155,0.819c0.316,0.341,0.562,0.737,0.734,1.189
			c0.173,0.453,0.26,0.922,0.26,1.407c0,0.103-0.003,0.196-0.008,0.28s-0.012,0.149-0.021,0.195h-6.063
			c0.028,0.364,0.112,0.695,0.252,0.994c0.141,0.299,0.322,0.556,0.546,0.771c0.225,0.215,0.479,0.383,0.764,0.504
			c0.284,0.121,0.585,0.182,0.902,0.182c0.225,0,0.443-0.03,0.658-0.091s0.415-0.143,0.603-0.245
			c0.187-0.103,0.352-0.229,0.497-0.378c0.145-0.149,0.254-0.317,0.329-0.504l1.063,0.294c-0.121,0.271-0.287,0.518-0.497,0.742
			c-0.21,0.224-0.453,0.418-0.728,0.581c-0.275,0.163-0.581,0.292-0.917,0.385S100.33,28.938,99.965,28.938z M102.472,24.654
			c-0.028-0.346-0.115-0.665-0.26-0.959c-0.145-0.295-0.326-0.544-0.546-0.749c-0.219-0.206-0.474-0.366-0.763-0.483
			c-0.289-0.116-0.598-0.175-0.924-0.175c-0.327,0-0.635,0.059-0.924,0.175c-0.29,0.117-0.544,0.28-0.764,0.49
			c-0.219,0.21-0.396,0.46-0.531,0.749c-0.136,0.289-0.218,0.606-0.245,0.952H102.472z"/>
		<path fill="#989898" d="M108.757,28.938c-0.569,0-1.088-0.14-1.554-0.42c-0.467-0.279-0.836-0.644-1.106-1.092v1.372h-1.092
			v-10.22h1.231v4.368c0.309-0.477,0.687-0.859,1.135-1.148c0.447-0.289,0.971-0.434,1.567-0.434c0.504,0,0.957,0.107,1.358,0.321
			c0.401,0.215,0.744,0.497,1.029,0.848c0.284,0.35,0.504,0.756,0.657,1.218c0.154,0.462,0.231,0.936,0.231,1.421
			c0,0.514-0.089,0.999-0.266,1.456c-0.178,0.457-0.421,0.856-0.729,1.197s-0.675,0.611-1.099,0.812
			C109.698,28.838,109.243,28.938,108.757,28.938z M108.45,27.874c0.363,0,0.699-0.075,1.008-0.225
			c0.308-0.148,0.573-0.35,0.798-0.602c0.224-0.252,0.396-0.539,0.518-0.861c0.121-0.321,0.183-0.66,0.183-1.015
			s-0.059-0.697-0.176-1.029c-0.116-0.331-0.279-0.623-0.489-0.875s-0.462-0.455-0.756-0.608c-0.295-0.154-0.619-0.231-0.974-0.231
			c-0.261,0-0.509,0.047-0.742,0.14c-0.233,0.094-0.45,0.218-0.65,0.371c-0.201,0.154-0.378,0.334-0.532,0.539
			c-0.154,0.206-0.287,0.425-0.399,0.658v2.114c0.047,0.233,0.147,0.448,0.302,0.644c0.153,0.196,0.336,0.367,0.546,0.512
			s0.434,0.259,0.672,0.343S108.225,27.874,108.45,27.874z"/>
		<path fill="#989898" d="M115.603,28.938c-0.346,0-0.668-0.058-0.966-0.175c-0.299-0.116-0.559-0.277-0.777-0.482
			c-0.22-0.206-0.392-0.446-0.518-0.722s-0.189-0.576-0.189-0.902c0-0.336,0.074-0.642,0.224-0.917s0.362-0.512,0.638-0.707
			c0.275-0.196,0.602-0.351,0.979-0.462c0.378-0.112,0.791-0.169,1.239-0.169c0.354,0,0.714,0.033,1.078,0.099
			s0.686,0.154,0.966,0.266v-0.588c0-0.597-0.168-1.066-0.504-1.407c-0.336-0.34-0.813-0.511-1.428-0.511
			c-0.737,0-1.513,0.285-2.324,0.854l-0.406-0.799c0.942-0.634,1.891-0.951,2.842-0.951c0.962,0,1.711,0.257,2.247,0.77
			c0.537,0.514,0.806,1.237,0.806,2.17v2.982c0,0.289,0.13,0.438,0.392,0.447v1.064c-0.131,0.019-0.238,0.032-0.322,0.042
			c-0.084,0.009-0.173,0.014-0.266,0.014c-0.243,0-0.437-0.072-0.581-0.217s-0.231-0.319-0.259-0.524l-0.028-0.519
			c-0.327,0.438-0.739,0.772-1.239,1.001C116.707,28.823,116.172,28.938,115.603,28.938z M115.925,28.014
			c0.438,0,0.847-0.081,1.225-0.245c0.378-0.163,0.665-0.38,0.861-0.65c0.177-0.178,0.266-0.359,0.266-0.546v-1.078
			c-0.598-0.233-1.218-0.351-1.862-0.351c-0.615,0-1.117,0.131-1.505,0.393c-0.387,0.261-0.581,0.602-0.581,1.021
			c0,0.206,0.04,0.397,0.119,0.574c0.079,0.178,0.191,0.331,0.336,0.462s0.315,0.233,0.511,0.308
			C115.491,27.977,115.701,28.014,115.925,28.014z"/>
		<path fill="#989898" d="M131.367,28.798h-1.232V24.71c0-0.784-0.118-1.354-0.356-1.708s-0.6-0.532-1.085-0.532
			c-0.252,0-0.504,0.049-0.756,0.147c-0.252,0.098-0.49,0.23-0.714,0.398c-0.225,0.168-0.42,0.369-0.589,0.603
			c-0.168,0.233-0.294,0.489-0.378,0.77v4.41h-1.231V21.49h1.12v1.567c0.289-0.513,0.707-0.924,1.253-1.231
			c0.546-0.309,1.141-0.462,1.785-0.462c0.42,0,0.77,0.076,1.05,0.23s0.504,0.369,0.672,0.645s0.287,0.6,0.357,0.973
			c0.069,0.373,0.104,0.779,0.104,1.218V28.798z"/>
		<path fill="#989898" d="M136.476,28.938c-0.551,0-1.052-0.103-1.505-0.308c-0.452-0.205-0.84-0.48-1.162-0.826
			c-0.321-0.345-0.571-0.746-0.749-1.204c-0.177-0.457-0.266-0.938-0.266-1.441c0-0.514,0.091-0.999,0.273-1.456
			c0.182-0.457,0.434-0.859,0.756-1.204c0.322-0.346,0.709-0.621,1.162-0.826c0.452-0.205,0.949-0.308,1.49-0.308
			c0.542,0,1.041,0.103,1.498,0.308c0.458,0.205,0.848,0.48,1.169,0.826c0.322,0.345,0.574,0.747,0.757,1.204
			c0.182,0.457,0.272,0.942,0.272,1.456c0,0.504-0.089,0.984-0.266,1.441c-0.178,0.458-0.43,0.859-0.756,1.204
			c-0.327,0.346-0.717,0.621-1.169,0.826C137.529,28.835,137.027,28.938,136.476,28.938z M134.054,25.172
			c0,0.383,0.063,0.737,0.189,1.064c0.126,0.326,0.299,0.611,0.518,0.854c0.22,0.243,0.477,0.434,0.771,0.574
			c0.294,0.14,0.608,0.21,0.944,0.21c0.337,0,0.651-0.07,0.945-0.21c0.294-0.141,0.553-0.334,0.777-0.581
			c0.224-0.247,0.398-0.537,0.524-0.868s0.189-0.688,0.189-1.071c0-0.373-0.063-0.726-0.189-1.057s-0.301-0.621-0.524-0.868
			c-0.225-0.247-0.483-0.44-0.777-0.581c-0.294-0.14-0.608-0.21-0.945-0.21c-0.336,0-0.65,0.072-0.944,0.217
			c-0.294,0.146-0.551,0.341-0.771,0.588c-0.219,0.248-0.392,0.537-0.518,0.868C134.118,24.433,134.054,24.789,134.054,25.172z"/>
		<path fill="#989898" d="M144.233,28.938c-0.588,0-1.166-0.091-1.735-0.272c-0.569-0.183-1.06-0.445-1.471-0.791l0.532-0.826
			c0.43,0.327,0.858,0.572,1.288,0.735s0.882,0.245,1.358,0.245c0.531,0,0.954-0.105,1.267-0.315s0.469-0.506,0.469-0.889
			c0-0.178-0.042-0.329-0.126-0.455s-0.21-0.236-0.378-0.329c-0.168-0.094-0.383-0.178-0.644-0.252
			c-0.262-0.075-0.565-0.154-0.91-0.238c-0.438-0.112-0.816-0.219-1.134-0.322c-0.317-0.103-0.579-0.224-0.784-0.363
			c-0.205-0.141-0.354-0.309-0.448-0.505c-0.093-0.195-0.14-0.438-0.14-0.728c0-0.364,0.072-0.688,0.217-0.973
			c0.145-0.285,0.343-0.522,0.595-0.714s0.549-0.337,0.89-0.435c0.34-0.098,0.707-0.146,1.099-0.146c0.551,0,1.064,0.089,1.54,0.266
			c0.476,0.178,0.877,0.411,1.204,0.7l-0.561,0.742c-0.308-0.271-0.653-0.474-1.035-0.609c-0.383-0.135-0.775-0.203-1.177-0.203
			c-0.447,0-0.828,0.096-1.141,0.287s-0.469,0.497-0.469,0.917c0,0.168,0.03,0.308,0.091,0.42s0.161,0.21,0.301,0.294
			s0.319,0.159,0.539,0.224c0.219,0.065,0.483,0.136,0.791,0.211c0.485,0.111,0.907,0.226,1.267,0.343
			c0.359,0.116,0.658,0.254,0.896,0.413c0.238,0.158,0.415,0.345,0.532,0.56c0.116,0.215,0.175,0.477,0.175,0.784
			c0,0.682-0.262,1.223-0.784,1.624S145.12,28.938,144.233,28.938z"/>
		<path fill="#989898" d="M151.148,28.938c-0.588,0-1.166-0.091-1.735-0.272c-0.569-0.183-1.06-0.445-1.471-0.791l0.532-0.826
			c0.43,0.327,0.858,0.572,1.288,0.735s0.882,0.245,1.358,0.245c0.531,0,0.954-0.105,1.267-0.315s0.469-0.506,0.469-0.889
			c0-0.178-0.042-0.329-0.126-0.455s-0.21-0.236-0.378-0.329c-0.168-0.094-0.383-0.178-0.644-0.252
			c-0.262-0.075-0.565-0.154-0.91-0.238c-0.438-0.112-0.816-0.219-1.134-0.322c-0.317-0.103-0.579-0.224-0.784-0.363
			c-0.205-0.141-0.354-0.309-0.448-0.505c-0.093-0.195-0.14-0.438-0.14-0.728c0-0.364,0.072-0.688,0.217-0.973
			c0.145-0.285,0.343-0.522,0.595-0.714s0.549-0.337,0.89-0.435c0.34-0.098,0.707-0.146,1.099-0.146c0.551,0,1.064,0.089,1.54,0.266
			c0.476,0.178,0.877,0.411,1.204,0.7l-0.561,0.742c-0.308-0.271-0.653-0.474-1.035-0.609c-0.383-0.135-0.775-0.203-1.177-0.203
			c-0.447,0-0.828,0.096-1.141,0.287s-0.469,0.497-0.469,0.917c0,0.168,0.03,0.308,0.091,0.42s0.161,0.21,0.301,0.294
			s0.319,0.159,0.539,0.224c0.219,0.065,0.483,0.136,0.791,0.211c0.485,0.111,0.907,0.226,1.267,0.343
			c0.359,0.116,0.658,0.254,0.896,0.413c0.238,0.158,0.415,0.345,0.532,0.56c0.116,0.215,0.175,0.477,0.175,0.784
			c0,0.682-0.262,1.223-0.784,1.624S152.035,28.938,151.148,28.938z"/>
		<path fill="#989898" d="M157.378,28.938c-0.346,0-0.668-0.058-0.966-0.175c-0.299-0.116-0.559-0.277-0.777-0.482
			c-0.22-0.206-0.392-0.446-0.518-0.722s-0.189-0.576-0.189-0.902c0-0.336,0.074-0.642,0.224-0.917s0.362-0.512,0.638-0.707
			c0.275-0.196,0.602-0.351,0.979-0.462c0.378-0.112,0.791-0.169,1.239-0.169c0.354,0,0.714,0.033,1.078,0.099
			s0.686,0.154,0.966,0.266v-0.588c0-0.597-0.168-1.066-0.504-1.407c-0.336-0.34-0.813-0.511-1.428-0.511
			c-0.737,0-1.513,0.285-2.324,0.854l-0.406-0.799c0.942-0.634,1.891-0.951,2.842-0.951c0.962,0,1.711,0.257,2.247,0.77
			c0.537,0.514,0.806,1.237,0.806,2.17v2.982c0,0.289,0.13,0.438,0.392,0.447v1.064c-0.131,0.019-0.238,0.032-0.322,0.042
			c-0.084,0.009-0.173,0.014-0.266,0.014c-0.243,0-0.437-0.072-0.581-0.217s-0.231-0.319-0.259-0.524l-0.028-0.519
			c-0.327,0.438-0.739,0.772-1.239,1.001C158.482,28.823,157.948,28.938,157.378,28.938z M157.701,28.014
			c0.438,0,0.847-0.081,1.225-0.245c0.378-0.163,0.665-0.38,0.861-0.65c0.177-0.178,0.266-0.359,0.266-0.546v-1.078
			c-0.598-0.233-1.218-0.351-1.862-0.351c-0.615,0-1.117,0.131-1.505,0.393c-0.387,0.261-0.581,0.602-0.581,1.021
			c0,0.206,0.04,0.397,0.119,0.574c0.079,0.178,0.191,0.331,0.336,0.462s0.315,0.233,0.511,0.308
			C157.266,27.977,157.476,28.014,157.701,28.014z"/>
		<path fill="#989898" d="M168.256,21.21v7.588h-1.26v-9.94h0.979l6.16,7.742v-7.728h1.26v9.926h-1.063L168.256,21.21z"/>
		<path fill="#989898" d="M180.688,28.938c-0.551,0-1.055-0.1-1.512-0.301c-0.457-0.2-0.85-0.474-1.176-0.819
			c-0.327-0.345-0.581-0.748-0.763-1.211c-0.183-0.462-0.273-0.949-0.273-1.463c0-0.513,0.091-0.998,0.273-1.456
			c0.182-0.457,0.438-0.858,0.77-1.204c0.331-0.345,0.726-0.618,1.184-0.818c0.457-0.201,0.961-0.301,1.512-0.301
			s1.052,0.103,1.505,0.308c0.452,0.205,0.838,0.479,1.155,0.819c0.316,0.341,0.562,0.737,0.734,1.189
			c0.173,0.453,0.26,0.922,0.26,1.407c0,0.103-0.003,0.196-0.008,0.28s-0.012,0.149-0.021,0.195h-6.063
			c0.028,0.364,0.112,0.695,0.252,0.994c0.141,0.299,0.322,0.556,0.546,0.771c0.225,0.215,0.479,0.383,0.764,0.504
			c0.284,0.121,0.585,0.182,0.902,0.182c0.225,0,0.443-0.03,0.658-0.091s0.415-0.143,0.603-0.245
			c0.187-0.103,0.352-0.229,0.497-0.378c0.145-0.149,0.254-0.317,0.329-0.504l1.063,0.294c-0.121,0.271-0.287,0.518-0.497,0.742
			c-0.21,0.224-0.453,0.418-0.728,0.581c-0.275,0.163-0.581,0.292-0.917,0.385S181.052,28.938,180.688,28.938z M183.195,24.654
			c-0.028-0.346-0.115-0.665-0.26-0.959c-0.145-0.295-0.326-0.544-0.546-0.749c-0.219-0.206-0.474-0.366-0.763-0.483
			c-0.289-0.116-0.598-0.175-0.924-0.175c-0.327,0-0.635,0.059-0.924,0.175c-0.29,0.117-0.544,0.28-0.764,0.49
			c-0.219,0.21-0.396,0.46-0.531,0.749c-0.136,0.289-0.218,0.606-0.245,0.952H183.195z"/>
		<path fill="#989898" d="M194.689,21.49h1.189l-3.107,7.308h-1.022l-1.47-3.57l-1.456,3.57H187.8l-3.107-7.308h1.176l2.52,6.09
			l1.232-3.038l-1.26-3.038h1.021l0.896,2.338l0.896-2.338h1.022l-1.246,3.038l1.231,3.038L194.689,21.49z"/>
		<path fill="#989898" d="M199.406,28.938c-0.588,0-1.166-0.091-1.735-0.272c-0.569-0.183-1.06-0.445-1.471-0.791l0.532-0.826
			c0.43,0.327,0.858,0.572,1.288,0.735s0.882,0.245,1.358,0.245c0.531,0,0.954-0.105,1.267-0.315s0.469-0.506,0.469-0.889
			c0-0.178-0.042-0.329-0.126-0.455s-0.21-0.236-0.378-0.329c-0.168-0.094-0.383-0.178-0.644-0.252
			c-0.262-0.075-0.565-0.154-0.91-0.238c-0.438-0.112-0.816-0.219-1.134-0.322c-0.317-0.103-0.579-0.224-0.784-0.363
			c-0.205-0.141-0.354-0.309-0.448-0.505c-0.093-0.195-0.14-0.438-0.14-0.728c0-0.364,0.072-0.688,0.217-0.973
			c0.145-0.285,0.343-0.522,0.595-0.714s0.549-0.337,0.89-0.435c0.34-0.098,0.707-0.146,1.099-0.146c0.551,0,1.064,0.089,1.54,0.266
			c0.476,0.178,0.877,0.411,1.204,0.7l-0.561,0.742c-0.308-0.271-0.653-0.474-1.035-0.609c-0.383-0.135-0.775-0.203-1.177-0.203
			c-0.447,0-0.828,0.096-1.141,0.287s-0.469,0.497-0.469,0.917c0,0.168,0.03,0.308,0.091,0.42s0.161,0.21,0.301,0.294
			s0.319,0.159,0.539,0.224c0.219,0.065,0.483,0.136,0.791,0.211c0.485,0.111,0.907,0.226,1.267,0.343
			c0.359,0.116,0.658,0.254,0.896,0.413c0.238,0.158,0.415,0.345,0.532,0.56c0.116,0.215,0.175,0.477,0.175,0.784
			c0,0.682-0.262,1.223-0.784,1.624S200.292,28.938,199.406,28.938z"/>
		<path fill="#989898" d="M203.789,18.578h1.231v8.33c0,0.271,0.072,0.482,0.217,0.637s0.348,0.23,0.609,0.23
			c0.103,0,0.224-0.016,0.364-0.049c0.14-0.032,0.271-0.072,0.392-0.119l0.196,0.994c-0.206,0.084-0.448,0.154-0.729,0.21
			c-0.279,0.057-0.527,0.084-0.742,0.084c-0.476,0-0.852-0.135-1.127-0.405s-0.412-0.649-0.412-1.135V18.578z"/>
		<path fill="#989898" d="M210.998,28.938c-0.551,0-1.055-0.1-1.512-0.301c-0.457-0.2-0.85-0.474-1.176-0.819
			c-0.327-0.345-0.581-0.748-0.763-1.211c-0.183-0.462-0.273-0.949-0.273-1.463c0-0.513,0.091-0.998,0.273-1.456
			c0.182-0.457,0.438-0.858,0.77-1.204c0.331-0.345,0.726-0.618,1.184-0.818c0.457-0.201,0.961-0.301,1.512-0.301
			s1.052,0.103,1.505,0.308c0.452,0.205,0.838,0.479,1.155,0.819c0.316,0.341,0.562,0.737,0.734,1.189
			c0.173,0.453,0.26,0.922,0.26,1.407c0,0.103-0.003,0.196-0.008,0.28s-0.012,0.149-0.021,0.195h-6.063
			c0.028,0.364,0.112,0.695,0.252,0.994c0.141,0.299,0.322,0.556,0.546,0.771c0.225,0.215,0.479,0.383,0.764,0.504
			c0.284,0.121,0.585,0.182,0.902,0.182c0.225,0,0.443-0.03,0.658-0.091s0.415-0.143,0.603-0.245
			c0.187-0.103,0.352-0.229,0.497-0.378c0.145-0.149,0.254-0.317,0.329-0.504l1.063,0.294c-0.121,0.271-0.287,0.518-0.497,0.742
			c-0.21,0.224-0.453,0.418-0.728,0.581c-0.275,0.163-0.581,0.292-0.917,0.385S211.362,28.938,210.998,28.938z M213.504,24.654
			c-0.028-0.346-0.115-0.665-0.26-0.959c-0.145-0.295-0.326-0.544-0.546-0.749c-0.219-0.206-0.474-0.366-0.763-0.483
			c-0.289-0.116-0.598-0.175-0.924-0.175c-0.327,0-0.635,0.059-0.924,0.175c-0.29,0.117-0.544,0.28-0.764,0.49
			c-0.219,0.21-0.396,0.46-0.531,0.749c-0.136,0.289-0.218,0.606-0.245,0.952H213.504z"/>
		<path fill="#989898" d="M219.749,28.434c-0.075,0.038-0.173,0.082-0.294,0.133c-0.122,0.052-0.26,0.104-0.413,0.154
			c-0.154,0.052-0.322,0.094-0.504,0.126c-0.183,0.033-0.371,0.049-0.567,0.049c-0.448,0-0.836-0.123-1.162-0.371
			c-0.327-0.247-0.49-0.632-0.49-1.154v-4.914h-0.994V21.49h0.994v-2.437h1.232v2.437h1.638v0.966h-1.638v4.536
			c0.019,0.271,0.107,0.467,0.266,0.588c0.159,0.121,0.346,0.182,0.561,0.182c0.242,0,0.464-0.039,0.665-0.119
			c0.2-0.079,0.338-0.142,0.413-0.188L219.749,28.434z"/>
		<path fill="#989898" d="M224.676,28.434c-0.075,0.038-0.173,0.082-0.294,0.133c-0.122,0.052-0.26,0.104-0.413,0.154
			c-0.154,0.052-0.322,0.094-0.504,0.126c-0.183,0.033-0.371,0.049-0.567,0.049c-0.448,0-0.836-0.123-1.162-0.371
			c-0.327-0.247-0.49-0.632-0.49-1.154v-4.914h-0.994V21.49h0.994v-2.437h1.232v2.437h1.638v0.966h-1.638v4.536
			c0.019,0.271,0.107,0.467,0.266,0.588c0.159,0.121,0.346,0.182,0.561,0.182c0.242,0,0.464-0.039,0.665-0.119
			c0.2-0.079,0.338-0.142,0.413-0.188L224.676,28.434z"/>
		<path fill="#989898" d="M228.959,28.938c-0.551,0-1.055-0.1-1.512-0.301c-0.457-0.2-0.85-0.474-1.176-0.819
			c-0.327-0.345-0.581-0.748-0.763-1.211c-0.183-0.462-0.273-0.949-0.273-1.463c0-0.513,0.091-0.998,0.273-1.456
			c0.182-0.457,0.438-0.858,0.77-1.204c0.331-0.345,0.726-0.618,1.184-0.818c0.457-0.201,0.961-0.301,1.512-0.301
			s1.052,0.103,1.505,0.308c0.452,0.205,0.838,0.479,1.155,0.819c0.316,0.341,0.562,0.737,0.734,1.189
			c0.173,0.453,0.26,0.922,0.26,1.407c0,0.103-0.003,0.196-0.008,0.28s-0.012,0.149-0.021,0.195h-6.063
			c0.028,0.364,0.112,0.695,0.252,0.994c0.141,0.299,0.322,0.556,0.546,0.771c0.225,0.215,0.479,0.383,0.764,0.504
			c0.284,0.121,0.585,0.182,0.902,0.182c0.225,0,0.443-0.03,0.658-0.091s0.415-0.143,0.603-0.245
			c0.187-0.103,0.352-0.229,0.497-0.378c0.145-0.149,0.254-0.317,0.329-0.504l1.063,0.294c-0.121,0.271-0.287,0.518-0.497,0.742
			c-0.21,0.224-0.453,0.418-0.728,0.581c-0.275,0.163-0.581,0.292-0.917,0.385S229.324,28.938,228.959,28.938z M231.466,24.654
			c-0.028-0.346-0.115-0.665-0.26-0.959c-0.145-0.295-0.326-0.544-0.546-0.749c-0.219-0.206-0.474-0.366-0.763-0.483
			c-0.289-0.116-0.598-0.175-0.924-0.175c-0.327,0-0.635,0.059-0.924,0.175c-0.29,0.117-0.544,0.28-0.764,0.49
			c-0.219,0.21-0.396,0.46-0.531,0.749c-0.136,0.289-0.218,0.606-0.245,0.952H231.466z"/>
		<path fill="#989898" d="M237.864,22.567c-0.616,0.02-1.16,0.178-1.632,0.477c-0.471,0.299-0.805,0.714-1.001,1.246v4.508H234
			V21.49h1.147v1.693c0.252-0.504,0.584-0.912,0.994-1.225c0.411-0.313,0.85-0.487,1.316-0.525c0.093,0,0.173,0,0.238,0
			c0.064,0,0.121,0.005,0.168,0.015V22.567z"/>
	</g>
</g>
</svg>
