<?xml version="1.0" encoding="utf-8"?>
<!-- Generator: Adobe Illustrator 15.1.0, SVG Export Plug-In . SVG Version: 6.00 Build 0)  -->
<!DOCTYPE svg PUBLIC "-//W3C//DTD SVG 1.1//EN" "http://www.w3.org/Graphics/SVG/1.1/DTD/svg11.dtd">
<svg version="1.1" xmlns="http://www.w3.org/2000/svg" xmlns:xlink="http://www.w3.org/1999/xlink" x="0px" y="0px"
	 width="48.189px" height="48.189px" viewBox="0 0 48.189 48.189" enable-background="new 0 0 48.189 48.189" xml:space="preserve">
<g id="Layer_1" display="none">
	
		<rect x="-144.446" y="-511.884" display="inline" fill="#63AF52" stroke="#000000" stroke-miterlimit="10" width="626" height="624"/>
	<rect x="-139.446" y="-211.053" display="inline" fill="#64B052" width="1920" height="256.235"/>
	<g display="inline">
		<defs>
			<rect id="SVGID_1_" x="-164.446" y="-8.795" width="1970" height="33"/>
		</defs>
		<clipPath id="SVGID_2_">
			<use xlink:href="#SVGID_1_"  overflow="visible"/>
		</clipPath>
		<g opacity="0.2" clip-path="url(#SVGID_2_)">
			<rect x="-164.446" y="-8.795" fill="#FFFFFF" width="5" height="291"/>
			<rect x="-152.446" y="-8.795" fill="#FFFFFF" width="6" height="291"/>
			<rect x="-139.446" y="-8.795" fill="#FFFFFF" width="6" height="291"/>
			<rect x="-126.446" y="-8.795" fill="#FFFFFF" width="5" height="291"/>
			<rect x="-114.446" y="-8.795" fill="#FFFFFF" width="5" height="291"/>
			<rect x="-102.446" y="-8.795" fill="#FFFFFF" width="6" height="291"/>
			<rect x="-89.446" y="-8.795" fill="#FFFFFF" width="5" height="291"/>
			<rect x="-77.446" y="-8.795" fill="#FFFFFF" width="5" height="291"/>
			<rect x="-65.446" y="-8.795" fill="#FFFFFF" width="6" height="291"/>
			<rect x="-52.446" y="-8.795" fill="#FFFFFF" width="6" height="291"/>
			<rect x="-39.446" y="-8.795" fill="#FFFFFF" width="5" height="291"/>
			<rect x="-27.446" y="-8.795" fill="#FFFFFF" width="5" height="291"/>
			<rect x="-15.446" y="-8.795" fill="#FFFFFF" width="5" height="291"/>
			<rect x="-3.446" y="-8.795" fill="#FFFFFF" width="7" height="291"/>
			<rect x="9.554" y="-8.795" fill="#FFFFFF" width="6" height="291"/>
			<rect x="22.554" y="-8.795" fill="#FFFFFF" width="5" height="291"/>
			<rect x="34.554" y="-8.795" fill="#FFFFFF" width="5" height="291"/>
			<rect x="46.554" y="-8.795" fill="#FFFFFF" width="6" height="291"/>
			<rect x="59.554" y="-8.795" fill="#FFFFFF" width="5" height="291"/>
			<rect x="71.554" y="-8.795" fill="#FFFFFF" width="6" height="291"/>
			<rect x="84.554" y="-8.795" fill="#FFFFFF" width="5" height="291"/>
			<rect x="96.554" y="-8.795" fill="#FFFFFF" width="6" height="291"/>
			<rect x="109.554" y="-8.795" fill="#FFFFFF" width="5" height="291"/>
			<rect x="121.554" y="-8.795" fill="#FFFFFF" width="5" height="291"/>
			<rect x="133.554" y="-8.795" fill="#FFFFFF" width="6" height="291"/>
			<rect x="146.554" y="-8.795" fill="#FFFFFF" width="6" height="291"/>
			<rect x="159.554" y="-8.795" fill="#FFFFFF" width="5" height="291"/>
			<rect x="171.554" y="-8.795" fill="#FFFFFF" width="5" height="291"/>
			<rect x="183.554" y="-8.795" fill="#FFFFFF" width="5" height="291"/>
			<rect x="195.554" y="-8.795" fill="#FFFFFF" width="6" height="291"/>
			<rect x="208.554" y="-8.795" fill="#FFFFFF" width="6" height="291"/>
			<rect x="221.554" y="-8.795" fill="#FFFFFF" width="5" height="291"/>
			<rect x="233.554" y="-8.795" fill="#FFFFFF" width="5" height="291"/>
			<rect x="246.554" y="-8.795" fill="#FFFFFF" width="5" height="291"/>
			<rect x="258.554" y="-8.795" fill="#FFFFFF" width="5" height="291"/>
			<rect x="270.554" y="-8.795" fill="#FFFFFF" width="6" height="291"/>
			<rect x="283.554" y="-8.795" fill="#FFFFFF" width="6" height="291"/>
			<rect x="296.554" y="-8.795" fill="#FFFFFF" width="5" height="291"/>
			<rect x="308.554" y="-8.795" fill="#FFFFFF" width="5" height="291"/>
			<rect x="320.554" y="-8.795" fill="#FFFFFF" width="5" height="291"/>
			<rect x="332.554" y="-8.795" fill="#FFFFFF" width="6" height="291"/>
			<rect x="345.554" y="-8.795" fill="#FFFFFF" width="6" height="291"/>
			<rect x="358.554" y="-8.795" fill="#FFFFFF" width="5" height="291"/>
			<rect x="370.554" y="-8.795" fill="#FFFFFF" width="5" height="291"/>
			<rect x="382.554" y="-8.795" fill="#FFFFFF" width="6" height="291"/>
			<rect x="395.554" y="-8.795" fill="#FFFFFF" width="5" height="291"/>
			<rect x="407.554" y="-8.795" fill="#FFFFFF" width="6" height="291"/>
			<rect x="420.554" y="-8.795" fill="#FFFFFF" width="5" height="291"/>
			<rect x="432.554" y="-8.795" fill="#FFFFFF" width="6" height="291"/>
			<rect x="445.554" y="-8.795" fill="#FFFFFF" width="5" height="291"/>
			<rect x="457.554" y="-8.795" fill="#FFFFFF" width="5" height="291"/>
			<rect x="469.554" y="-8.795" fill="#FFFFFF" width="5" height="291"/>
			<rect x="481.554" y="-8.795" fill="#FFFFFF" width="7" height="291"/>
			<rect x="495.554" y="-8.795" fill="#FFFFFF" width="5" height="291"/>
			<rect x="507.554" y="-8.795" fill="#FFFFFF" width="5" height="291"/>
			<rect x="519.554" y="-8.795" fill="#FFFFFF" width="5" height="291"/>
			<rect x="531.554" y="-8.795" fill="#FFFFFF" width="6" height="291"/>
			<rect x="544.554" y="-8.795" fill="#FFFFFF" width="6" height="291"/>
			<rect x="557.554" y="-8.795" fill="#FFFFFF" width="5" height="291"/>
			<rect x="569.554" y="-8.795" fill="#FFFFFF" width="5" height="291"/>
			<rect x="581.554" y="-8.795" fill="#FFFFFF" width="6" height="291"/>
			<rect x="594.554" y="-8.795" fill="#FFFFFF" width="5" height="291"/>
			<rect x="606.554" y="-8.795" fill="#FFFFFF" width="5" height="291"/>
			<rect x="618.554" y="-8.795" fill="#FFFFFF" width="6" height="291"/>
			<rect x="631.554" y="-8.795" fill="#FFFFFF" width="6" height="291"/>
			<rect x="644.554" y="-8.795" fill="#FFFFFF" width="5" height="291"/>
			<rect x="656.554" y="-8.795" fill="#FFFFFF" width="5" height="291"/>
			<rect x="668.554" y="-8.795" fill="#FFFFFF" width="5" height="291"/>
			<rect x="681.554" y="-8.795" fill="#FFFFFF" width="6" height="291"/>
			<rect x="693.554" y="-8.795" fill="#FFFFFF" width="6" height="291"/>
			<rect x="706.554" y="-8.795" fill="#FFFFFF" width="5" height="291"/>
			<rect x="718.554" y="-8.795" fill="#FFFFFF" width="6" height="291"/>
			<rect x="731.554" y="-8.795" fill="#FFFFFF" width="5" height="291"/>
			<rect x="743.554" y="-8.795" fill="#FFFFFF" width="5" height="291"/>
			<rect x="755.554" y="-8.795" fill="#FFFFFF" width="6" height="291"/>
			<rect x="768.554" y="-8.795" fill="#FFFFFF" width="6" height="291"/>
			<rect x="781.554" y="-8.795" fill="#FFFFFF" width="5" height="291"/>
			<rect x="793.554" y="-8.795" fill="#FFFFFF" width="5" height="291"/>
			<rect x="805.554" y="-8.795" fill="#FFFFFF" width="5" height="291"/>
			<rect x="817.554" y="-8.795" fill="#FFFFFF" width="6" height="291"/>
			<rect x="830.554" y="-8.795" fill="#FFFFFF" width="6" height="291"/>
			<rect x="843.554" y="-8.795" fill="#FFFFFF" width="5" height="291"/>
			<rect x="855.554" y="-8.795" fill="#FFFFFF" width="5" height="291"/>
			<rect x="867.554" y="-8.795" fill="#FFFFFF" width="6" height="291"/>
			<rect x="880.554" y="-8.795" fill="#FFFFFF" width="5" height="291"/>
			<rect x="892.554" y="-8.795" fill="#FFFFFF" width="6" height="291"/>
			<rect x="905.554" y="-8.795" fill="#FFFFFF" width="5" height="291"/>
			<rect x="917.554" y="-8.795" fill="#FFFFFF" width="6" height="291"/>
			<rect x="930.554" y="-8.795" fill="#FFFFFF" width="5" height="291"/>
			<rect x="942.554" y="-8.795" fill="#FFFFFF" width="5" height="291"/>
			<rect x="954.554" y="-8.795" fill="#FFFFFF" width="6" height="291"/>
			<rect x="967.554" y="-8.795" fill="#FFFFFF" width="6" height="291"/>
			<rect x="980.554" y="-8.795" fill="#FFFFFF" width="5" height="291"/>
			<rect x="992.554" y="-8.795" fill="#FFFFFF" width="5" height="291"/>
			<rect x="1004.554" y="-8.795" fill="#FFFFFF" width="5" height="291"/>
			<rect x="1016.554" y="-8.795" fill="#FFFFFF" width="6" height="291"/>
			<rect x="1029.554" y="-8.795" fill="#FFFFFF" width="6" height="291"/>
			<rect x="1042.554" y="-8.795" fill="#FFFFFF" width="5" height="291"/>
			<rect x="1054.554" y="-8.795" fill="#FFFFFF" width="5" height="291"/>
			<rect x="1066.554" y="-8.795" fill="#FFFFFF" width="6" height="291"/>
			<rect x="1079.554" y="-8.795" fill="#FFFFFF" width="5" height="291"/>
			<rect x="1091.554" y="-8.795" fill="#FFFFFF" width="6" height="291"/>
			<rect x="1104.554" y="-8.795" fill="#FFFFFF" width="5" height="291"/>
			<rect x="1117.554" y="-8.795" fill="#FFFFFF" width="5" height="291"/>
			<rect x="1129.554" y="-8.795" fill="#FFFFFF" width="5" height="291"/>
			<rect x="1141.554" y="-8.795" fill="#FFFFFF" width="5" height="291"/>
			<rect x="1153.554" y="-8.795" fill="#FFFFFF" width="6" height="291"/>
			<rect x="1166.554" y="-8.795" fill="#FFFFFF" width="6" height="291"/>
			<rect x="1179.554" y="-8.795" fill="#FFFFFF" width="5" height="291"/>
			<rect x="1191.554" y="-8.795" fill="#FFFFFF" width="5" height="291"/>
			<rect x="1203.554" y="-8.795" fill="#FFFFFF" width="6" height="291"/>
			<rect x="1216.554" y="-8.795" fill="#FFFFFF" width="5" height="291"/>
			<rect x="1228.554" y="-8.795" fill="#FFFFFF" width="6" height="291"/>
			<rect x="1241.554" y="-8.795" fill="#FFFFFF" width="5" height="291"/>
			<rect x="1253.554" y="-8.795" fill="#FFFFFF" width="6" height="291"/>
			<rect x="1266.554" y="-8.795" fill="#FFFFFF" width="5" height="291"/>
			<rect x="1278.554" y="-8.795" fill="#FFFFFF" width="5" height="291"/>
			<rect x="1290.554" y="-8.795" fill="#FFFFFF" width="5" height="291"/>
			<rect x="1302.554" y="-8.795" fill="#FFFFFF" width="7" height="291"/>
			<rect x="1316.554" y="-8.795" fill="#FFFFFF" width="5" height="291"/>
			<rect x="1328.554" y="-8.795" fill="#FFFFFF" width="5" height="291"/>
			<rect x="1340.554" y="-8.795" fill="#FFFFFF" width="5" height="291"/>
			<rect x="1352.554" y="-8.795" fill="#FFFFFF" width="6" height="291"/>
			<rect x="1365.554" y="-8.795" fill="#FFFFFF" width="5" height="291"/>
			<rect x="1377.554" y="-8.795" fill="#FFFFFF" width="6" height="291"/>
			<rect x="1390.554" y="-8.795" fill="#FFFFFF" width="5" height="291"/>
			<rect x="1402.554" y="-8.795" fill="#FFFFFF" width="6" height="291"/>
			<rect x="1415.554" y="-8.795" fill="#FFFFFF" width="5" height="291"/>
			<rect x="1427.554" y="-8.795" fill="#FFFFFF" width="5" height="291"/>
			<rect x="1439.554" y="-8.795" fill="#FFFFFF" width="6" height="291"/>
			<rect x="1452.554" y="-8.795" fill="#FFFFFF" width="6" height="291"/>
			<rect x="1465.554" y="-8.795" fill="#FFFFFF" width="5" height="291"/>
			<rect x="1477.554" y="-8.795" fill="#FFFFFF" width="5" height="291"/>
			<rect x="1489.554" y="-8.795" fill="#FFFFFF" width="5" height="291"/>
			<rect x="1501.554" y="-8.795" fill="#FFFFFF" width="6" height="291"/>
			<rect x="1514.554" y="-8.795" fill="#FFFFFF" width="6" height="291"/>
			<rect x="1527.554" y="-8.795" fill="#FFFFFF" width="5" height="291"/>
			<rect x="1539.554" y="-8.795" fill="#FFFFFF" width="5" height="291"/>
			<rect x="1552.554" y="-8.795" fill="#FFFFFF" width="5" height="291"/>
			<rect x="1564.554" y="-8.795" fill="#FFFFFF" width="5" height="291"/>
			<rect x="1576.554" y="-8.795" fill="#FFFFFF" width="6" height="291"/>
			<rect x="1589.554" y="-8.795" fill="#FFFFFF" width="6" height="291"/>
			<rect x="1602.554" y="-8.795" fill="#FFFFFF" width="5" height="291"/>
			<rect x="1614.554" y="-8.795" fill="#FFFFFF" width="5" height="291"/>
			<rect x="1626.554" y="-8.795" fill="#FFFFFF" width="5" height="291"/>
			<rect x="1638.554" y="-8.795" fill="#FFFFFF" width="6" height="291"/>
			<rect x="1651.554" y="-8.795" fill="#FFFFFF" width="6" height="291"/>
			<rect x="1664.554" y="-8.795" fill="#FFFFFF" width="5" height="291"/>
			<rect x="1676.554" y="-8.795" fill="#FFFFFF" width="5" height="291"/>
			<rect x="1688.554" y="-8.795" fill="#FFFFFF" width="6" height="291"/>
			<rect x="1701.554" y="-8.795" fill="#FFFFFF" width="5" height="291"/>
			<rect x="1713.554" y="-8.795" fill="#FFFFFF" width="6" height="291"/>
			<rect x="1726.554" y="-8.795" fill="#FFFFFF" width="5" height="291"/>
			<rect x="1738.554" y="-8.795" fill="#FFFFFF" width="6" height="291"/>
			<rect x="1751.554" y="-8.795" fill="#FFFFFF" width="5" height="291"/>
			<rect x="1763.554" y="-8.795" fill="#FFFFFF" width="5" height="291"/>
			<rect x="1775.554" y="-8.795" fill="#FFFFFF" width="6" height="291"/>
			<rect x="1788.554" y="-8.795" fill="#FFFFFF" width="6" height="291"/>
			<rect x="1801.554" y="-8.795" fill="#FFFFFF" width="5" height="291"/>
		</g>
	</g>
	<g display="inline">
	</g>
</g>
<g id="Layer_3" display="none">
	<rect x="-1.575" y="-1.727" display="inline" width="52.129" height="51.642"/>
</g>
<g id="Layer_2">
	<rect x="-0.745" y="-0.745" fill="none" width="49.679" height="49.68"/>
	<path display="none" fill="#FFFFFF" d="M24.095,0.636c-12.936,0-23.459,10.523-23.459,23.459s10.523,23.459,23.459,23.459
		S47.554,37.03,47.554,24.095S37.031,0.636,24.095,0.636 M37.865,37.865c-3.678,3.679-8.568,5.704-13.771,5.704
		c-5.203,0-10.092-2.025-13.769-5.704c-3.678-3.678-5.704-8.568-5.704-13.771s2.026-10.093,5.704-13.771
		c3.676-3.679,8.566-5.704,13.769-5.704c5.202,0,10.092,2.025,13.771,5.704c3.676,3.678,5.702,8.568,5.702,13.771
		S41.542,34.188,37.865,37.865"/>
	<g display="none">
		<path display="inline" fill="#FFFFFF" d="M17.949,18.874c0.589-0.098,1.358-0.182,2.34-0.182c1.204,0,2.087,0.279,2.646,0.785
			c0.505,0.447,0.827,1.135,0.827,1.975c0,0.854-0.252,1.527-0.729,2.018c-0.658,0.686-1.695,1.035-2.886,1.035
			c-0.364,0-0.7-0.014-0.98-0.084v3.783h-1.219V18.874z M19.168,23.427c0.267,0.07,0.603,0.098,1.009,0.098
			c1.471,0,2.367-0.729,2.367-2.002c0-1.262-0.896-1.863-2.228-1.863c-0.532,0-0.938,0.041-1.148,0.098V23.427z"/>
		<path display="inline" fill="#FFFFFF" d="M27.19,19.8h-2.871v-1.037h6.989V19.8h-2.886v8.404H27.19V19.8z"/>
	</g>
	<g>
		<defs>
			<rect id="SVGID_3_" x="0" y="-0.001" width="48.19" height="48.19"/>
		</defs>
		<clipPath id="SVGID_4_">
			<use xlink:href="#SVGID_3_"  overflow="visible"/>
		</clipPath>
		<path clip-path="url(#SVGID_4_)" fill="#FFFFFF" d="M24.095,0.996c-12.737,0-23.101,10.363-23.101,23.101
			c0,12.74,10.364,23.104,23.101,23.104c12.739,0,23.103-10.363,23.103-23.104C47.198,11.359,36.834,0.996,24.095,0.996
			 M38.544,36.707c-3.019,3.458-7.172,5.72-11.691,6.372l-0.486,0.068V25.673h4.318v-4.074h-4.364v-1.536
			c0-1.236,0.284-2.297,0.821-3.058c0.625-0.891,1.578-1.36,2.761-1.36c0.62,0,1.207,0.067,1.753,0.199l0.348-4.336
			c-1.018-0.268-2.09-0.397-3.263-0.397c-2.227,0-4.32,0.77-5.744,2.112c-2.225,2.118-2.557,5.342-2.557,7.073v1.303h-3.019v4.074
			h3.019v17.261l-0.517-0.115c-4.193-0.929-8-3.288-10.723-6.64c-1.357-1.674-2.416-3.544-3.145-5.562
			c-0.755-2.085-1.138-4.28-1.138-6.521c0-5.123,1.996-9.937,5.616-13.56c3.624-3.624,8.438-5.619,13.561-5.619
			s9.939,1.995,13.562,5.619c3.622,3.623,5.615,8.437,5.615,13.56C43.272,28.737,41.594,33.215,38.544,36.707"/>
	</g>
</g>
</svg>
