<?xml version="1.0" encoding="utf-8"?>
<!-- Generator: Adobe Illustrator 15.1.0, SVG Export Plug-In . SVG Version: 6.00 Build 0)  -->
<!DOCTYPE svg PUBLIC "-//W3C//DTD SVG 1.1//EN" "http://www.w3.org/Graphics/SVG/1.1/DTD/svg11.dtd">
<svg version="1.1" id="Layer_1" xmlns="http://www.w3.org/2000/svg" xmlns:xlink="http://www.w3.org/1999/xlink" x="0px" y="0px"
	 width="44.396px" height="88.415px" viewBox="0 0 44.396 88.415" enable-background="new 0 0 44.396 88.415" xml:space="preserve">
<g id="XMLID_145_">
	<g id="XMLID_188_">
		<path id="XMLID_192_" fill="#FFFFFF" d="M27.539,5.217c0.029-0.063,0.058-0.129,0.084-0.195c0.746-1.886-0.177-4.017-2.062-4.764
			c-1.885-0.745-4.017,0.178-4.763,2.062c-0.027,0.067-0.05,0.135-0.073,0.201L20.72,2.518L1.756,50.708
			c-0.746,1.885,0.177,4.018,2.062,4.763c1.885,0.746,4.016-0.178,4.762-2.062L27.545,5.221L27.539,5.217z"/>
		<path id="XMLID_191_" fill="#FFFFFF" d="M33.023,18.792c0.029-0.063,0.058-0.128,0.084-0.194c0.746-1.885-0.176-4.016-2.062-4.764
			c-1.885-0.746-4.017,0.178-4.762,2.062c-0.027,0.067-0.05,0.134-0.074,0.201l-0.006-0.003L12.635,50.708
			c-0.746,1.885,0.176,4.018,2.061,4.763c1.885,0.746,4.017-0.178,4.763-2.062l13.571-34.614L33.023,18.792z"/>
		<path id="XMLID_190_" fill="#FFFFFF" d="M42.075,41.261c-1.885-0.745-4.016,0.178-4.762,2.062
			c-0.026,0.067-0.051,0.135-0.073,0.201l-0.007-0.002l-2.813,7.187c-0.746,1.885,0.177,4.018,2.062,4.763
			c1.885,0.746,4.016-0.178,4.762-2.062l2.814-7.186l-0.006-0.004c0.029-0.064,0.058-0.129,0.084-0.194
			C44.883,44.14,43.96,42.009,42.075,41.261z"/>
		<path id="XMLID_189_" fill="#FFFFFF" d="M38.48,32.519c0.03-0.064,0.059-0.129,0.085-0.195c0.749-1.894-0.171-4.031-2.056-4.778
			c-1.885-0.745-4.019,0.185-4.768,2.075c-0.027,0.067-0.051,0.135-0.074,0.202l-0.006-0.003l-8.195,20.875
			c-0.749,1.893,0.171,4.031,2.057,4.776c1.884,0.746,4.019-0.184,4.768-2.076l8.195-20.872L38.48,32.519z"/>
	</g>
	<g id="XMLID_146_">
		<g id="XMLID_181_">
			<path id="XMLID_187_" fill="#FFFFFF" d="M5.362,70.796c-1.799,0-3.257-1.663-3.257-4.818c0-3.274,1.458-4.822,3.257-4.822
				c0.606,0,1.28,0.25,1.91,0.677l1.039-1.343c-0.84-0.636-1.834-1.008-2.902-1.008C2.423,59.482,0,62.048,0,65.939
				c0,4.296,2.423,6.457,5.409,6.457c1.141,0,2.199-0.422,3.072-1.142l-0.988-1.286C6.804,70.492,6.04,70.796,5.362,70.796z"/>
			<path id="XMLID_186_" fill="#FFFFFF" d="M43.354,69.968c-0.69,0.523-1.455,0.828-2.133,0.828c-1.799,0-3.255-1.663-3.255-4.818
				c0-3.274,1.456-4.822,3.255-4.822c0.607,0,1.281,0.25,1.912,0.677l1.038-1.343c-0.839-0.636-1.833-1.008-2.901-1.008
				c-2.988,0-5.41,2.566-5.41,6.457c0,4.296,2.422,6.457,5.41,6.457c1.14,0,2.197-0.422,3.071-1.142L43.354,69.968z"/>
			<polygon id="XMLID_185_" fill="#FFFFFF" points="19.064,59.778 16.688,68.937 14.31,59.778 11.619,59.778 10.631,72.008 
				12.488,72.008 13.112,62.38 15.818,71.956 15.903,71.958 15.9,71.969 16.688,71.963 17.474,71.969 17.471,71.958 17.556,71.956 
				20.263,62.38 20.887,72.008 22.744,72.008 21.756,59.778 			"/>
			<path id="XMLID_182_" fill="#FFFFFF" d="M34.073,63.46c-0.021-0.503-0.231-1.99-1.412-2.974
				c-1.026-0.854-3.351-0.789-4.476-0.789l-2.346,0.004V71.96h1.943v-4.676c0.838,0.031,3.707,0.206,4.878-0.77
				c1.181-0.983,1.393-2.471,1.412-2.974h0.002c0,0-0.001-0.024-0.001-0.036c0.001-0.015,0.001-0.031,0.001-0.045H34.073z
				 M31.297,65.096c-0.794,0.74-2.841,0.564-3.514,0.538V61.37c0.674-0.028,2.72-0.204,3.514,0.537
				c0.516,0.479,0.552,1.154,0.56,1.599C31.849,63.95,31.809,64.619,31.297,65.096z"/>
		</g>
		<g id="XMLID_170_">
			<path id="XMLID_180_" fill="#FFFFFF" d="M4.73,80.603c-0.948,0-1.561-0.976-1.561-2.484c0-1.834,0.807-2.487,1.561-2.487
				c0.257,0,0.545,0.103,0.822,0.288l0.337-0.482c-0.347-0.266-0.738-0.405-1.138-0.405c-1.329,0-2.293,1.289-2.293,3.067
				c0,1.863,0.9,3.067,2.293,3.067c0.432,0,0.851-0.161,1.217-0.469l-0.314-0.453C5.349,80.476,5.024,80.603,4.73,80.603z"/>
			<path id="XMLID_177_" fill="#FFFFFF" d="M29.853,75.086c-0.119-0.027-0.234-0.04-0.346-0.04h-0.03
				c-0.029,0-0.04,0.001-0.051,0.002l-0.029,0.001c-0.38,0.017-0.748,0.172-1.068,0.449l-0.044,0.04
				c-0.009,0.007-0.015,0.013-0.02,0.017l-0.023,0.023c-0.574,0.552-0.904,1.476-0.904,2.534c0,1.674,0.664,2.805,1.776,3.027
				c0.122,0.027,0.234,0.04,0.346,0.04h0.05c0.01,0,0.02,0,0.03-0.001l0.03-0.002c0.381-0.016,0.748-0.172,1.069-0.45
				c0.015-0.014,0.029-0.025,0.044-0.04l0.042-0.039c0.575-0.552,0.905-1.477,0.905-2.535C31.63,76.441,30.966,75.31,29.853,75.086z
				 M29.479,80.582c-0.248,0-0.522-0.104-0.792-0.297c-0.393-0.376-0.562-1.037-0.562-2.153c0-2.162,0.854-2.484,1.363-2.484
				c0.248,0,0.522,0.102,0.793,0.295c0.391,0.375,0.56,1.036,0.56,2.152C30.841,80.258,29.987,80.582,29.479,80.582z"/>
			<polygon id="XMLID_176_" fill="#FFFFFF" points="8.856,78.299 10.503,78.299 10.503,77.7 8.842,77.7 8.842,75.788 10.791,75.788 
				10.883,75.16 8.172,75.16 8.172,81.067 10.984,81.067 10.984,80.44 8.856,80.44 			"/>
			<polygon id="XMLID_175_" fill="#FFFFFF" points="39.615,80.44 39.615,78.299 41.263,78.299 41.263,77.7 39.601,77.7 
				39.601,75.788 41.551,75.788 41.642,75.16 38.932,75.16 38.932,81.067 41.744,81.067 41.744,80.44 			"/>
			<polygon id="XMLID_174_" fill="#FFFFFF" points="13.796,75.16 13.106,75.16 13.106,81.067 15.687,81.067 15.778,80.44 
				13.79,80.44 			"/>
			<polygon id="XMLID_173_" fill="#FFFFFF" points="23.948,75.16 23.257,75.16 23.257,81.067 25.838,81.067 25.929,80.44 
				23.941,80.44 			"/>
			<path id="XMLID_172_" fill="#FFFFFF" d="M20.902,75.16h-0.691l0.003,4.476c-0.04,0.538-0.485,0.914-1.08,0.914
				c-0.627,0-1.082-0.418-1.082-0.994c0-0.038,0.002-0.076,0.006-0.114l-0.001-1.243l0,0l-0.003-0.236l0.003-2.802h-0.691v4.416
				l0.003,0.048c0.028,0.908,0.754,1.543,1.766,1.543c1.025,0,1.769-0.672,1.769-1.597c0-0.045-0.002-0.088-0.006-0.132
				L20.902,75.16z"/>
			<path id="XMLID_171_" fill="#FFFFFF" d="M35.307,77.595l-0.026-0.012c-0.674-0.317-1.255-0.592-0.942-1.329
				c0.097-0.226,0.329-0.494,0.893-0.494c0.522,0,1.106,0.228,1.319,0.318l0.37-0.475c-0.212-0.144-0.826-0.486-1.867-0.486
				c-0.782,0-1.443,0.723-1.443,1.579c0,0.549,0.26,1.014,0.713,1.276c0.128,0.078,0.311,0.153,0.505,0.234
				c0.689,0.286,1.635,0.678,1.35,1.68c-0.119,0.417-0.556,0.675-1.139,0.675c-0.089-0.005-0.356-0.025-0.643-0.103l-0.044-0.013
				c-0.075-0.021-0.153-0.049-0.227-0.079c-0.194-0.081-0.377-0.176-0.486-0.235l-0.234,0.506c0.146,0.092,0.467,0.277,0.761,0.355
				c0.427,0.111,0.899,0.124,1.083,0.124c0.065,0,0.104-0.002,0.104-0.002c0.863,0,1.615-0.802,1.615-1.717
				C36.967,78.71,36.424,78.121,35.307,77.595z"/>
		</g>
		<g id="XMLID_147_">
			<polygon id="XMLID_169_" fill="#FFFFFF" points="30.385,86.282 31.392,86.282 31.392,85.795 30.374,85.795 30.374,84.458 
				31.57,84.458 31.644,83.954 29.957,83.954 29.957,88.289 31.683,88.289 31.683,87.783 30.385,87.783 			"/>
			<polygon id="XMLID_168_" fill="#FFFFFF" points="40.309,87.783 40.309,86.282 41.313,86.282 41.313,85.795 40.298,85.795 
				40.298,84.458 41.494,84.458 41.567,83.954 39.881,83.954 39.881,88.289 41.605,88.289 41.605,87.783 			"/>
			<path id="XMLID_165_" fill="#FFFFFF" d="M9.774,83.894c-0.076-0.02-0.146-0.029-0.216-0.029h-0.02
				c-0.018-0.001-0.024,0-0.031,0.001l-0.02,0.001c-0.236,0.012-0.467,0.126-0.668,0.33c-0.01,0.009-0.019,0.019-0.027,0.027
				c-0.006,0.007-0.012,0.011-0.016,0.016l-0.012,0.014c-0.361,0.406-0.569,1.083-0.569,1.857c0,1.227,0.417,2.056,1.116,2.219
				c0.079,0.021,0.149,0.029,0.215,0.029l0.021-0.001l0.004,0.057l0.01-0.055l-0.003-0.001c0.006,0,0.014,0,0.014,0l0.025-0.002
				c0.236-0.012,0.468-0.125,0.669-0.33l0.031-0.031c0,0,0.007-0.008,0.013-0.014l0.01-0.013c0.363-0.406,0.569-1.083,0.569-1.858
				C10.89,84.885,10.473,84.056,9.774,83.894z M9.54,87.874c-0.153,0-0.322-0.073-0.487-0.212c-0.236-0.265-0.34-0.737-0.34-1.536
				c0-1.545,0.521-1.776,0.833-1.776c0.153,0,0.323,0.074,0.488,0.213c0.236,0.264,0.34,0.736,0.34,1.536
				C10.374,87.643,9.852,87.874,9.54,87.874z"/>
			<polygon id="XMLID_164_" fill="#FFFFFF" points="6.404,88.269 6.888,88.269 6.894,83.954 6.404,83.954 			"/>
			<polygon id="XMLID_163_" fill="#FFFFFF" points="24.393,87.224 23.218,83.954 22.696,83.954 22.696,88.269 23.094,88.269 
				23.098,84.866 24.329,88.269 24.791,88.269 24.795,83.954 24.393,83.954 			"/>
			<polygon id="XMLID_162_" fill="#FFFFFF" points="34.714,87.224 33.539,83.954 33.018,83.954 33.018,88.269 33.415,88.269 
				33.418,84.866 34.648,88.269 35.111,88.269 35.116,83.954 34.714,83.954 			"/>
			<path id="XMLID_161_" fill="#FFFFFF" d="M13.336,86.492h0.557v1.272l-0.029,0.017c-0.139,0.077-0.272,0.115-0.396,0.115
				c-0.611,0-1.004-0.696-1.004-1.772c0-1.309,0.518-1.774,1.004-1.774c0.241,0,0.438,0.143,0.572,0.283l0.218-0.343
				c-0.165-0.217-0.476-0.425-0.777-0.425c-0.879,0-1.518,0.944-1.518,2.244c0,1.364,0.596,2.246,1.518,2.246
				c0.294,0,0.578-0.124,0.823-0.36l-0.034-0.061h0.049v-1.949h-1.041L13.336,86.492z"/>
			<path id="XMLID_158_" fill="#FFFFFF" d="M19.834,83.954l-1.021,4.315h0.395l0.267-1.146h1.247l0.267,1.146h0.395l-1.021-4.315
				H19.834z M19.59,86.635l0.509-2.178l0.508,2.178H19.59z"/>
			<path id="XMLID_157_" fill="#FFFFFF" d="M37.911,85.829c-0.105-0.05-0.229-0.091-0.282-0.108l-0.015-0.004
				c-0.384-0.131-0.8-0.355-0.605-0.941c0.083-0.252,0.21-0.418,0.561-0.418c0.327,0.017,0.657,0.208,0.786,0.292l0.155-0.453
				c-0.183-0.121-0.545-0.298-1.101-0.298c-0.503,0-0.928,0.544-0.928,1.188c0,0.431,0.172,0.814,0.448,1.001
				c0.06,0.028,0.473,0.216,0.505,0.228c0.592,0.229,0.816,0.603,0.67,1.11c-0.085,0.298-0.349,0.476-0.704,0.476
				c-0.016,0-0.2-0.011-0.405-0.075l-0.035-0.013c-0.04-0.013-0.089-0.031-0.134-0.053c-0.129-0.063-0.249-0.137-0.317-0.179
				l-0.165,0.414c0.083,0.061,0.303,0.215,0.503,0.275c0.271,0.083,0.57,0.091,0.688,0.091c0.04,0,0.063,0,0.063,0
				c0.554,0,1.036-0.603,1.036-1.289C38.635,86.445,38.271,85.973,37.911,85.829z"/>
			<path id="XMLID_154_" fill="#FFFFFF" d="M27.457,84.004l-0.684-0.02h-0.47v4.284h0.151h0.259h0.098h0.323h0.322
				c0.545,0,0.988-0.956,0.988-2.132C28.445,84.96,28.002,84.004,27.457,84.004z M27.335,87.804l-0.01,0.004h-0.61l0.003-3.274
				h-0.005l0.005-0.063v-0.056h0.138v0.001c0.034-0.001,0.067-0.001,0.1-0.001h0.059c0.687,0.006,0.993,0.537,0.993,1.722
				C28.007,87.097,27.787,87.642,27.335,87.804z"/>
			<path id="XMLID_151_" fill="#FFFFFF" d="M4.282,86.322c0.193-0.049,0.334-0.121,0.418-0.216c0.29-0.327,0.313-0.869,0.316-0.931
				C5.014,85.111,4.99,84.564,4.7,84.234c-0.227-0.257-0.8-0.284-1.037-0.284c-0.087,0-0.142,0.003-0.142,0.003l-0.463,0.001v4.315
				h0.397l0.001-1.883H3.55h0.002c0.036,0.002,0.104,0.004,0.188,0.001l0.051,0.035l0.8,1.847h0.596l-0.971-1.931L4.282,86.322z
				 M3.62,85.954c-0.029,0-0.054-0.001-0.072-0.001l-0.002,0.005H3.458v-0.059l0.002-1.515h0.092l0.001,0.005
				c0.019-0.001,0.041-0.001,0.067-0.001c0.223,0,0.621,0.03,0.8,0.232c0.146,0.166,0.178,0.392,0.179,0.553
				c-0.001,0.16-0.033,0.385-0.179,0.55C4.241,85.923,3.843,85.954,3.62,85.954z"/>
			<path id="XMLID_148_" fill="#FFFFFF" d="M17.05,86.322c0.194-0.049,0.335-0.121,0.419-0.216c0.289-0.326,0.313-0.869,0.315-0.931
				c-0.002-0.064-0.026-0.612-0.315-0.941c-0.228-0.257-0.801-0.284-1.037-0.284c-0.088,0-0.143,0.003-0.143,0.003l-0.463,0.001
				v4.315h0.397l0.003-1.885h0.094l0.002,0.002c0.037,0.001,0.104,0.004,0.187,0.001l0.05,0.035l0.799,1.847h0.597l-0.972-1.931
				L17.05,86.322z M16.389,85.954c-0.026,0-0.048-0.001-0.066-0.001v0.002h-0.095l-0.001-0.056l0.001-1.453l0.01-0.055
				c0,0,0.085-0.003,0.151-0.003c0.222,0,0.621,0.03,0.799,0.232c0.146,0.167,0.179,0.393,0.179,0.553s-0.033,0.385-0.179,0.55
				C17.01,85.923,16.61,85.954,16.389,85.954z"/>
		</g>
	</g>
</g>
</svg>
