<?xml version="1.0" encoding="utf-8"?>
<!-- Generator: Adobe Illustrator 15.1.0, SVG Export Plug-In . SVG Version: 6.00 Build 0)  -->
<!DOCTYPE svg PUBLIC "-//W3C//DTD SVG 1.1//EN" "http://www.w3.org/Graphics/SVG/1.1/DTD/svg11.dtd">
<svg version="1.1" id="Layer_1" xmlns="http://www.w3.org/2000/svg" xmlns:xlink="http://www.w3.org/1999/xlink" x="0px" y="0px"
	 width="86px" height="80.041px" viewBox="0 0 86 80.041" enable-background="new 0 0 86 80.041" xml:space="preserve">
<rect x="-647.682" y="-229.979" fill="#F1F4F6" width="500" height="500"/>
<path fill="#252A34" d="M-507.682-179.979c-49.706,0-90,40.294-90,90c0,11.33,2.098,22.168,5.92,32.155
	c0.585,1.529,0.961,3.133,1.082,4.766l2.82,38.222c0.213,2.887,2.515,5.189,5.402,5.402l38.869,2.866
	c1.695,0.125,3.356,0.534,4.952,1.119c9.652,3.538,20.077,5.469,30.955,5.469c49.706,0,90-40.294,90-90
	S-457.976-179.979-507.682-179.979z M-507.682-13.737c-42.107,0-76.243-34.135-76.243-76.243s34.135-76.243,76.243-76.243
	s76.243,34.135,76.243,76.243S-465.574-13.737-507.682-13.737z"/>
<path fill="#252A34" d="M-287.682-179.979c-49.706,0-90,40.294-90,90c0,11.33,2.098,22.168,5.921,32.155
	c0.585,1.529,0.961,3.133,1.081,4.766l2.82,38.222c0.213,2.887,2.516,5.189,5.402,5.402l38.868,2.866
	c1.695,0.125,3.356,0.534,4.952,1.119c9.651,3.538,20.077,5.469,30.955,5.469c49.706,0,90-40.294,90-90
	S-237.976-179.979-287.682-179.979z M-287.682-13.737c-42.107,0-76.243-34.135-76.243-76.243s34.136-76.243,76.243-76.243
	s76.243,34.135,76.243,76.243S-245.574-13.737-287.682-13.737z"/>
<path fill="#252A34" d="M-507.682,40.021c-49.706,0-90,40.295-90,90c0,11.33,2.098,22.168,5.92,32.154
	c0.585,1.529,0.961,3.133,1.082,4.766l2.82,38.223c0.213,2.887,2.515,5.189,5.402,5.402l38.869,2.867
	c1.695,0.125,3.356,0.533,4.952,1.119c9.652,3.537,20.077,5.469,30.955,5.469c49.706,0,90-40.295,90-90
	S-457.976,40.021-507.682,40.021z M-507.682,206.263c-42.107,0-76.243-34.135-76.243-76.242s34.135-76.242,76.243-76.242
	s76.243,34.135,76.243,76.242S-465.574,206.263-507.682,206.263z"/>
<path fill="#252A34" d="M-287.682,40.021c-49.706,0-90,40.295-90,90c0,11.33,2.098,22.168,5.921,32.154
	c0.585,1.529,0.961,3.133,1.081,4.766l2.82,38.223c0.213,2.887,2.516,5.189,5.402,5.402l38.868,2.867
	c1.695,0.125,3.356,0.533,4.952,1.119c9.651,3.537,20.077,5.469,30.955,5.469c49.706,0,90-40.295,90-90
	S-237.976,40.021-287.682,40.021z M-287.682,206.263c-42.107,0-76.243-34.135-76.243-76.242s34.136-76.242,76.243-76.242
	s76.243,34.135,76.243,76.242S-245.574,206.263-287.682,206.263z"/>
<g>
	<path fill="#FFFFFF" d="M81.82,0H30.098c-2.31,0-4.18,2.11-4.18,4.712v7c0,2.603,1.87,4.713,4.18,4.713H81.82
		c2.308,0,4.18-2.11,4.18-4.713v-7C86,2.11,84.128,0,81.82,0z"/>
	<path fill="#FFFFFF" d="M81.82,31.809H30.098c-2.31,0-4.18,2.11-4.18,4.712v7c0,2.602,1.87,4.712,4.18,4.712H81.82
		c2.308,0,4.18-2.11,4.18-4.712v-7C86,33.919,84.128,31.809,81.82,31.809z"/>
	<path fill="#FFFFFF" d="M81.82,63.616H30.098c-2.31,0-4.18,2.11-4.18,4.713v6.999c0,2.603,1.87,4.713,4.18,4.713H81.82
		c2.308,0,4.18-2.11,4.18-4.713v-6.999C86,65.727,84.128,63.616,81.82,63.616z"/>
	<path fill="#FFFFFF" d="M13.491,0H4.18C1.87,0,0,2.11,0,4.712v7c0,2.603,1.87,4.713,4.18,4.713h9.312c2.308,0,4.18-2.11,4.18-4.713
		v-7C17.671,2.11,15.799,0,13.491,0z"/>
	<path fill="#FFFFFF" d="M13.491,31.809H4.18c-2.31,0-4.18,2.11-4.18,4.712v7c0,2.602,1.87,4.712,4.18,4.712h9.312
		c2.308,0,4.18-2.11,4.18-4.712v-7C17.671,33.919,15.799,31.809,13.491,31.809z"/>
	<path fill="#FFFFFF" d="M13.491,63.616H4.18c-2.31,0-4.18,2.11-4.18,4.713v6.999c0,2.603,1.87,4.713,4.18,4.713h9.312
		c2.308,0,4.18-2.11,4.18-4.713v-6.999C17.671,65.727,15.799,63.616,13.491,63.616z"/>
</g>
<g>
	<path fill="#252A34" d="M-515.984,89.575h-30.518c-2.309,0-4.18,2.11-4.18,4.713v27.026c0,2.603,1.871,4.713,4.18,4.713h30.518
		c2.308,0,4.18-2.11,4.18-4.713V94.288C-511.805,91.686-513.677,89.575-515.984,89.575z"/>
	<path fill="#252A34" d="M-468.86,89.575h-30.517c-2.31,0-4.181,2.11-4.181,4.713v27.026c0,2.603,1.871,4.713,4.181,4.713h30.517
		c2.308,0,4.179-2.11,4.179-4.713V94.288C-464.682,91.686-466.553,89.575-468.86,89.575z"/>
	<path fill="#252A34" d="M-515.984,134.014h-30.518c-2.309,0-4.18,2.109-4.18,4.712v27.027c0,2.603,1.871,4.712,4.18,4.712h30.518
		c2.308,0,4.18-2.109,4.18-4.712v-27.027C-511.805,136.123-513.677,134.014-515.984,134.014z"/>
	<path fill="#252A34" d="M-468.86,134.014h-30.517c-2.31,0-4.181,2.109-4.181,4.712v27.027c0,2.603,1.871,4.712,4.181,4.712h30.517
		c2.308,0,4.179-2.109,4.179-4.712v-27.027C-464.682,136.123-466.553,134.014-468.86,134.014z"/>
</g>
<g>
	<path fill="#252A34" d="M-312.898-130.311h-13.418c-2.412,0-4.365,2.204-4.365,4.922v11.001c0,2.718,1.953,4.922,4.365,4.922
		h13.418c2.41,0,4.365-2.204,4.365-4.922v-11.001C-308.533-128.107-310.488-130.311-312.898-130.311z"/>
	<path fill="#252A34" d="M-312.898-100.23h-13.418c-2.412,0-4.365,2.204-4.365,4.922v11.002c0,2.718,1.953,4.922,4.365,4.922h13.418
		c2.41,0,4.365-2.204,4.365-4.922v-11.002C-308.533-98.026-310.488-100.23-312.898-100.23z"/>
	<path fill="#252A34" d="M-312.898-70.494h-13.418c-2.412,0-4.365,2.204-4.365,4.922v11.002c0,2.718,1.953,4.921,4.365,4.921h13.418
		c2.41,0,4.365-2.204,4.365-4.921v-11.002C-308.533-68.29-310.488-70.494-312.898-70.494z"/>
	<path fill="#252A34" d="M-249.047-130.311h-13.418c-2.41,0-4.365,2.204-4.365,4.922v11.001c0,2.718,1.955,4.922,4.365,4.922h13.418
		c2.41,0,4.365-2.204,4.365-4.922v-11.001C-244.682-128.107-246.637-130.311-249.047-130.311z"/>
	<path fill="#252A34" d="M-249.047-100.23h-13.418c-2.41,0-4.365,2.204-4.365,4.922v11.002c0,2.718,1.955,4.922,4.365,4.922h13.418
		c2.41,0,4.365-2.204,4.365-4.922v-11.002C-244.682-98.026-246.637-100.23-249.047-100.23z"/>
	<path fill="#252A34" d="M-249.047-70.494h-13.418c-2.41,0-4.365,2.204-4.365,4.922v11.002c0,2.718,1.955,4.921,4.365,4.921h13.418
		c2.41,0,4.365-2.204,4.365-4.921v-11.002C-244.682-68.29-246.637-70.494-249.047-70.494z"/>
	<path fill="#252A34" d="M-280.973-130.311h-13.418c-2.411,0-4.365,2.204-4.365,4.922v11.001c0,2.718,1.954,4.922,4.365,4.922
		h13.418c2.41,0,4.365-2.204,4.365-4.922v-11.001C-276.607-128.107-278.563-130.311-280.973-130.311z"/>
	<path fill="#252A34" d="M-280.973-100.23h-13.418c-2.411,0-4.365,2.204-4.365,4.922v11.002c0,2.718,1.954,4.922,4.365,4.922h13.418
		c2.41,0,4.365-2.204,4.365-4.922v-11.002C-276.607-98.026-278.563-100.23-280.973-100.23z"/>
	<path fill="#252A34" d="M-280.973-70.494h-13.418c-2.411,0-4.365,2.204-4.365,4.922v11.002c0,2.718,1.954,4.921,4.365,4.921h13.418
		c2.41,0,4.365-2.204,4.365-4.921v-11.002C-276.607-68.29-278.563-70.494-280.973-70.494z"/>
</g>
<g>
	<path fill="#252A34" d="M-467.224-131.884h-80.915c-1.405,0-2.543,1.284-2.543,2.867v3.541c0,1.583,1.138,2.867,2.543,2.867h80.915
		c1.403,0,2.542-1.284,2.542-2.867v-3.541C-464.682-130.6-465.821-131.884-467.224-131.884z"/>
	<path fill="#252A34" d="M-467.224-113.25h-80.915c-1.405,0-2.543,1.283-2.543,2.866v3.542c0,1.583,1.138,2.867,2.543,2.867h80.915
		c1.403,0,2.542-1.283,2.542-2.867v-3.542C-464.682-111.967-465.821-113.25-467.224-113.25z"/>
	<path fill="#252A34" d="M-467.224-94.617h-80.915c-1.405,0-2.543,1.284-2.543,2.867v3.541c0,1.583,1.138,2.867,2.543,2.867h80.915
		c1.403,0,2.542-1.284,2.542-2.867v-3.541C-464.682-93.333-465.821-94.617-467.224-94.617z"/>
	<path fill="#252A34" d="M-467.224-75.983h-80.915c-1.405,0-2.543,1.283-2.543,2.866v3.542c0,1.583,1.138,2.867,2.543,2.867h80.915
		c1.403,0,2.542-1.284,2.542-2.867v-3.542C-464.682-74.7-465.821-75.983-467.224-75.983z"/>
	<path fill="#252A34" d="M-467.224-57.35h-80.915c-1.405,0-2.543,1.283-2.543,2.867v3.541c0,1.583,1.138,2.867,2.543,2.867h80.915
		c1.403,0,2.542-1.283,2.542-2.867v-3.541C-464.682-56.067-465.821-57.35-467.224-57.35z"/>
</g>
</svg>
